<?xml version="1.0" encoding="UTF-8" standalone="no"?>
<!-- Created with Inkscape (http://www.inkscape.org/) -->

<svg
   version="1.1"
   id="svg1"
   width="1121.0118"
   height="790.86633"
   viewBox="0 0 1121.0119 790.86634"
   sodipodi:docname="logo_20250913183614.png"
   inkscape:export-filename="tarjeta 2_clases privadas.svg"
   inkscape:export-xdpi="300"
   inkscape:export-ydpi="300"
   xmlns:inkscape="http://www.inkscape.org/namespaces/inkscape"
   xmlns:sodipodi="http://sodipodi.sourceforge.net/DTD/sodipodi-0.dtd"
   xmlns="http://www.w3.org/2000/svg"
   xmlns:svg="http://www.w3.org/2000/svg">
  <defs
     id="defs1" />
  <sodipodi:namedview
     id="namedview1"
     pagecolor="#ffffff"
     bordercolor="#999999"
     borderopacity="1"
     inkscape:showpageshadow="2"
     inkscape:pageopacity="0"
     inkscape:pagecheckerboard="0"
     inkscape:deskcolor="#d1d1d1"
     showgrid="false">
    <inkscape:page
       x="0"
       y="0"
       width="1121.0118"
       height="790.86633"
       id="page2"
       margin="0"
       bleed="0" />
  </sodipodi:namedview>
  <g
     inkscape:groupmode="layer"
     inkscape:label="Image"
     id="g1"
     transform="translate(-2.3796307,-2.6923084)">
    <rect
       style="fill:#fffdf8;fill-opacity:1;stroke:#fffdf8;stroke-opacity:1"
       id="rect11"
       width="1120.0117"
       height="789.86633"
       x="2.8796308"
       y="3.1923084"
       ry="0"
       rx="0" />
    <path
       style="fill:#000000;stroke-width:0.917217"
       d="m 276.10951,698.02609 c -9.52461,-0.50874 -11.21322,-1.75864 -12.09419,-8.95209 -0.2832,-2.31244 -1.17175,-9.22345 -1.97453,-15.3578 -0.80279,-6.13434 -1.71825,-14.19118 -2.03434,-17.90407 -1.51952,-17.84923 -3.5771,-38.13034 -4.10926,-40.50431 -0.32567,-1.45287 -1.01326,-6.47189 -1.52797,-11.15336 -0.51471,-4.68147 -1.06679,-9.05563 -1.22685,-9.72034 -0.54447,-2.26098 -53.18261,-45.67052 -53.51207,-44.13024 -0.0917,0.42879 0.89392,11.33376 2.19023,24.23325 2.50216,24.89756 6.48114,65.87256 8.07892,83.19538 l 0.96221,10.43215 -1.74073,2.48226 c -2.1672,3.09042 -5.11513,4.5236 -10.79143,5.24639 -8.68292,1.10565 -24.90693,-1.87947 -27.55476,-5.06989 -1.36711,-1.6473 -3.01187,-9.31076 -3.85166,-17.94639 -2.41349,-24.81864 -4.5683,-55.95676 -4.0519,-58.55068 0.17729,-0.89031 -0.37001,-8.75104 -1.21605,-17.46828 -0.84613,-8.71723 -1.9191,-20.16258 -2.38449,-25.43412 -1.82279,-20.64837 -4.66543,-47.20025 -6.10692,-57.04203 -0.63839,-4.35862 -1.11525,-8.321 -1.05957,-8.80529 0.113,-0.98468 0,-2.16205 -2.84677,-30.23147 -1.11414,-10.97725 -2.56684,-23.26062 -3.22824,-27.29637 -0.66141,-4.03576 -1.45324,-9.54028 -1.75967,-12.23227 -0.30636,-2.692 -1.06628,-5.8619 -1.6887,-7.04423 -2.81879,-5.35508 -9.41633,-19.45494 -10.34483,-22.10834 -2.17693,-6.22118 -3.12897,-24.42285 -0.41768,-34.79403 1.3828,-5.28984 7.16666,-11.25031 10.12156,-14.80907 1.70539,-2.05393 2.27424,-3.33188 2.55702,-5.74453 0.48502,-4.1393 2.56903,-7.78863 8.00703,-14.02158 4.67662,-5.3603 16.68089,-20.07827 27.93955,-30.08975 8.23992,-7.32716 9.12908,-9.03419 14.27467,-12.78277 6.09085,-4.43719 11.7108,-9.6401 17.67789,-14.46092 4.58529,-3.70448 11.23608,-8.40128 17.88141,-12.25389 2.90574,-1.68458 7.51128,-4.5116 9.77131,-6.12786 5.37099,-3.84105 14.97722,-7.48945 20.50481,-8.92986 12.23341,-3.18785 25.64273,-2.85958 37.2757,0.91253 18.82833,6.10528 36.60689,20.54367 97.14637,78.89485 8.23584,7.93815 22.89902,22.02011 32.58483,31.29326 9.68582,9.27314 18.97013,18.31035 20.6318,20.0827 4.68775,4.99994 8.64235,14.33216 10.54304,24.87983 3.59066,19.92609 6.04195,44.20115 6.69883,66.3388 0.28262,9.52438 0.6707,20.61263 0.8624,24.64057 0.1917,4.02794 0.47673,18.23217 0.63338,31.56496 0.15665,13.33279 0.40693,26.54711 0.55616,29.36516 0.83644,15.79617 1.54139,38.79821 1.35084,44.07724 -0.21601,5.98438 -0.24913,6.10693 -2.09662,7.75768 -3.35173,2.99475 -7.13161,3.64534 -21.56926,3.71242 -14.21877,0.066 -18.66433,-0.56006 -20.90417,-2.94428 -1.07133,-1.14037 -1.39772,-2.59377 -2.03627,-9.06725 -0.41824,-4.24006 -0.76076,-9.33416 -0.76112,-11.32026 -3.6e-4,-1.98609 -0.28448,-7.96968 -0.63136,-13.29688 -0.3469,-5.32719 -0.88155,-15.76146 -1.18814,-23.18725 -0.52958,-12.82673 -2.06284,-30.446 -2.7456,-31.55074 -0.17448,-0.28231 -4.18805,3.2688 -8.91903,7.89138 -14.7145,14.37731 -38.61336,35.66527 -53.39562,47.56227 -6.16504,4.96173 -5.94958,4.29325 -5.2594,16.31776 0.65856,11.47379 0.14937,15.93296 -2.12077,18.57215 -1.31343,1.52696 -1.98465,1.71371 -17.61462,4.90084 -6.90815,1.40866 -8.46229,0.49223 -10.44046,-6.15638 -0.67397,-2.2652 -1.44377,-4.35798 -1.71064,-4.65062 -0.27778,-0.30459 -1.43742,0.40364 -2.71217,1.65639 -1.2248,1.20366 -4.73643,3.40814 -7.8036,4.89884 -3.06717,1.49069 -5.72419,2.92438 -5.90448,3.18595 -0.1803,0.26158 0.008,3.84387 0.41827,7.96064 0.85729,8.60048 1.61549,18.74901 2.86168,38.30353 0.48353,7.58723 1.01762,15.51198 1.18687,17.61057 0.16926,2.0986 0.32747,8.85306 0.3516,15.00992 0.0407,10.38406 -0.0485,11.37543 -1.23279,13.69672 -1.03308,2.02502 -1.91356,2.78905 -4.61531,4.0049 -4.19342,1.88715 -14.57384,2.95551 -23.88434,2.4582 z m 15.95806,-7.02884 c 2.30037,-0.86726 5.33467,-3.93341 6.02215,-6.08537 0.80829,-2.53008 0.28523,-12.92866 -2.06907,-41.13364 -0.48509,-5.81149 -0.99768,-13.34001 -1.13907,-16.73004 -0.14141,-3.39003 -0.52095,-8.7034 -0.84342,-11.80748 -0.51035,-4.91253 -0.88269,-10.51686 -2.10373,-31.66476 -0.14085,-2.43951 -0.50361,-5.74149 -0.80614,-7.33774 -0.51532,-2.71905 -1.06338,-8.92551 -3.28896,-37.24531 -0.81776,-10.40584 -1.11242,-12.10855 -3.23293,-18.68248 -1.28326,-3.97825 -2.33319,-7.54514 -2.33319,-7.92643 0,-1.80703 -6.21442,-12.9616 -9.70226,-17.41507 -2.14927,-2.74431 -10.41564,-11.32946 -18.3697,-19.0781 -41.67622,-40.59993 -52.88465,-52.47659 -78.69907,-83.39102 -13.43339,-16.08725 -17.62754,-22.04177 -25.31813,-35.94402 -2.01632,-3.6449 -3.96165,-6.52911 -4.32294,-6.40935 -1.09626,0.36336 -3.79498,6.33721 -4.74843,10.51105 -1.03408,4.52689 -1.16377,13.12884 -0.2815,18.66872 1.30713,8.20822 5.21704,20.671 8.01097,25.53532 6.20324,10.79974 10.47692,15.99623 25.36004,30.83592 7.94284,7.91966 27.93303,27.99571 44.42259,44.61344 28.85008,29.07424 30.0609,30.3831 32.09631,34.69529 3.80651,8.06439 5.23717,14.83752 6.30707,29.85937 0.35643,5.00433 0.88603,10.55166 1.17689,12.32739 0.81402,4.96961 1.69091,15.52526 2.38772,28.74243 0.34831,6.60682 0.73387,12.1751 0.85677,12.37398 1.01407,1.64079 2.39922,19.23823 2.93212,37.25062 0.18147,6.13435 0.57037,12.73831 0.86421,14.67547 0.29384,1.93717 0.83611,5.76746 1.20505,8.51178 1.63697,12.17658 4.99791,26.61177 6.75258,29.00224 1.83803,2.50403 14.88075,4.74957 18.86407,3.24779 z m -93.52637,-23.3878 c 3.91267,-1.91789 4.75862,-3.95223 4.66175,-11.21031 -0.0413,-3.06717 -0.48787,-9.01073 -0.99325,-13.20793 -0.50539,-4.19718 -1.4615,-12.91441 -2.12473,-19.37161 -0.66324,-6.45721 -1.31548,-12.13662 -1.44948,-12.62091 -0.43201,-1.56159 -2.17155,-16.62889 -2.81956,-27.26639 -0.21738,-3.56796 0.17901,1.97709 0.86268,7.58099 -1.48167,-2.8717 -6.10802,-39.82007 -6.85208,-51.93092 -0.74102,-12.06232 -1.54312,-21.74839 -2.04172,-24.65479 -0.74322,-4.33238 -1.74372,-15.38474 -2.04576,-22.60023 -0.1352,-3.2286 -0.37835,-6.26643 -0.54042,-6.75072 -0.16217,-0.48429 -0.45247,-4.97498 -0.64517,-9.97931 -0.69626,-18.08224 -1.06022,-19.01868 -11.61546,-29.88984 -4.27625,-4.40431 -9.87357,-10.44343 -12.43838,-13.42029 -4.72505,-5.48414 -6.03887,-6.48236 -5.38544,-4.09166 0.81128,2.96862 1.6963,13.16262 2.43338,28.03016 0.7334,14.79203 4.71439,53.18872 6.99919,67.50717 1.5444,9.6785 2.35889,19.61284 3.56155,43.4394 0.4465,8.84825 1.41224,22.83871 1.74226,25.24181 0.15519,1.13002 0.41513,4.29992 0.57766,7.04423 0.16253,2.74432 0.55372,9.08413 0.86943,14.08846 0.31561,5.00434 0.61463,12.00454 0.66433,15.556 0.11347,8.09781 1.60412,25.7602 2.33671,27.6871 0.3025,0.79572 0.55006,2.19555 0.55006,3.11071 0,2.11989 5.29408,7.12986 8.94222,8.46241 3.8115,1.39219 11.13621,1.01801 14.75023,-0.75353 z m 136.80119,-75.92943 c 7.89407,-1.7929 9.12392,-2.91844 9.23689,-8.45349 0.15701,-7.69337 -0.67791,-13.70619 -1.9032,-13.70619 -0.27199,0 -2.15281,1.32112 -4.1796,2.93581 -2.02679,1.6147 -5.51983,4.20923 -7.76234,5.76562 -5.63705,3.91235 -8.63442,5.53732 -7.15573,9.41827 1.60708,4.21793 1.56448,6.20239 4.1559,5.70489 0.98666,-0.18943 4.4103,-0.93864 7.60808,-1.66491 z m -23.71822,-8.73327 c 12.83413,-8.86435 49.1369,-38.34104 76.31246,-61.96332 15.98829,-13.89777 29.91576,-28.48848 33.09528,-34.67132 1.5038,-2.92427 2.1717,-9.91098 1.56276,-16.34747 -0.49219,-5.20225 -0.84187,-6.6923 -1.42189,-6.05879 -0.12316,0.13453 -1.0278,1.82955 -2.0103,3.76671 -2.08464,4.11023 -7.72412,10.97535 -10.34804,12.59703 -1.00322,0.62001 -3.83766,3.23036 -6.29877,5.80075 -2.46111,2.5704 -5.88971,5.58203 -7.61909,6.69253 -1.72938,1.11049 -8.79574,6.48581 -15.70305,11.94514 -6.9073,5.45933 -16.58462,13.09596 -21.50515,16.97028 -24.02151,18.91405 -40.18721,32.68222 -49.12959,41.84316 -2.79031,2.85852 -5.91485,5.38027 -8.12764,6.55968 -3.31171,1.76513 -3.56357,2.038 -3.199,3.46593 0.37799,1.48058 1.95834,14.48017 2.03023,16.70034 0.0422,1.30231 -0.89675,1.85683 12.36179,-7.30065 z m 142.6456,5.34663 c 1.13001,-0.3086 2.89873,-1.08002 3.93049,-1.71428 3.6092,-2.21872 3.63798,-2.38302 3.09047,-17.64578 -0.27216,-7.58721 -0.77757,-16.96484 -1.12313,-20.83917 -1.32814,-14.89072 -2.36805,-47.5522 -2.03724,-63.98507 0.30965,-15.38139 0.0837,-21.58937 -1.5484,-42.55886 -0.289,-3.71289 -0.77309,-8.33567 -1.07578,-10.27283 -0.30267,-1.93716 -0.59489,-6.03162 -0.64938,-9.0988 -0.0545,-3.06717 -0.32577,-7.02955 -0.60286,-8.80528 -0.27707,-1.77573 -0.91455,-6.53058 -1.4166,-10.56635 -0.50206,-4.03575 -1.30342,-8.65852 -1.78082,-10.27283 -0.47739,-1.6143 -1.15314,-4.25588 -1.50167,-5.87018 -1.00237,-4.64271 -4.31135,-10.68278 -9.23144,-16.8508 -11.22042,-14.06629 -14.267,-17.43284 -22.62117,-24.99699 -4.88919,-4.42686 -11.68998,-10.69041 -15.11287,-13.91901 -9.9726,-9.40658 -22.11296,-20.22408 -28.44768,-25.34789 -3.31495,-2.68127 -11.80631,-11.00819 -19.50726,-19.12953 -12.77936,-13.4769 -27.39613,-27.13118 -34.792,-32.50099 -7.96938,-5.78622 -17.35727,-10.3865 -28.72544,-14.07611 -7.98464,-2.59148 -14.90466,-2.74473 -23.81412,-0.52738 -3.22786,0.80333 -6.20471,1.46373 -6.61524,1.46754 -2.64905,0.0247 -19.14384,7.621 -23.61487,10.87538 -1.45287,1.05752 -4.62278,3.25954 -7.04423,4.8934 -5.23448,3.53192 -15.22039,12.07303 -20.54567,17.57305 -2.09859,2.16745 -7.04321,6.53368 -10.98808,9.70272 -23.88644,19.18895 -43.82728,40.81108 -45.62888,49.47602 -0.52621,2.53072 1.17944,9.6499 3.57229,14.91085 1.10138,2.42145 6.28862,10.81988 11.5273,18.66315 10.05508,15.05439 10.5734,15.50577 9.2805,8.0812 -1.93001,-11.08288 0.35918,-20.83854 7.5153,-32.02752 1.54873,-2.42146 4.24452,-6.73572 5.99071,-9.58725 1.74621,-2.85154 4.86162,-7.21015 6.92325,-9.68581 2.06163,-2.47567 4.62287,-5.85302 5.6917,-7.50521 3.27428,-5.06156 5.31638,-6.60459 34.29282,-25.91161 4.03576,-2.68903 9.05477,-5.84536 11.15336,-7.01408 2.0986,-1.16872 4.47602,-2.62998 5.28317,-3.24725 2.64446,-2.02232 11.5322,-6.79131 13.86251,-7.43834 3.63327,-1.0088 10.34002,-0.76023 15.159,0.56183 5.26451,1.4443 14.80919,5.26444 17.14029,6.8602 0.92414,0.63262 3.79352,2.45919 6.3764,4.05904 8.03572,4.97737 13.49961,9.35544 23.65304,18.95253 5.39388,5.09832 14.42983,13.22979 20.07988,18.06993 16.90866,14.48489 23.24209,20.91551 34.55488,35.08512 5.67473,7.10777 13.00873,15.72967 16.29778,19.15975 3.28905,3.43008 6.61053,7.26038 7.38106,8.51177 1.9849,3.22359 7.97779,14.19113 9.44037,20.77345 0.68152,3.06717 -0.16576,8.53404 0.47986,11.43978 0.71432,3.21482 1.31391,8.72222 1.53156,14.06755 l 0.35767,8.78437 2.03506,2.07548 c 4.34482,4.43112 4.81209,5.62865 5.71765,14.65344 0.45904,4.57474 1.08767,9.29558 1.39697,10.49077 0.82643,3.19355 0.3013,15.99334 -0.81347,19.82803 -0.51994,1.7885 -1.76043,4.57651 -2.75666,6.19558 l -1.8113,2.94378 0.69134,17.71484 c 0.38025,9.74317 0.91789,21.14891 1.19475,25.3461 0.27687,4.19718 0.54285,10.12317 0.59109,13.16887 0.0482,3.04569 0.17677,5.68727 0.28565,5.87018 0.10888,0.18292 0.37106,3.50247 0.5826,7.3768 0.4337,7.94246 1.28226,14.96965 2.13258,17.6605 1.09802,3.47472 4.51309,5.76494 9.93744,6.66429 3.22688,0.53501 11.87027,0.20395 14.67547,-0.56209 z m -201.35139,-5.41836 c -0.002,-0.40358 -0.52535,-5.88486 -1.16268,-12.18065 -0.63733,-6.29577 -1.16389,-11.64826 -1.17015,-11.89441 -0.007,-0.24616 -1.53028,-1.40327 -3.38672,-2.57135 -8.00945,-5.03958 -10.28248,-6.63139 -18.34434,-12.84656 -18.13382,-13.98001 -32.15571,-24.08437 -32.68604,-23.55403 -0.17455,0.17461 0,3.56809 0.38321,7.54107 0.63058,6.50234 0.88063,7.4874 2.50373,9.86521 3.01526,4.41746 5.53953,6.78091 18.05872,16.90817 19.42503,15.71368 32.27331,26.5531 33.26109,28.06064 0.97575,1.48919 2.54972,1.90504 2.54318,0.67191 z m 50.36438,-25.82883 c 1.5993,-1.37216 4.06435,-3.62491 5.47786,-5.00611 1.41352,-1.38123 4.47116,-4.15489 6.79474,-6.1637 2.32359,-2.00883 7.07845,-6.27103 10.56635,-9.47158 3.4879,-3.20054 8.19074,-7.0042 10.45077,-8.45256 5.383,-3.44975 37.81378,-27.73755 39.33027,-29.45491 1.46001,-1.6534 9.93008,-8.46383 17.31705,-13.92392 6.79163,-5.02003 13.0112,-11.38799 18.98463,-19.43757 4.46685,-6.01936 4.49611,-6.08245 4.49286,-9.68581 -0.006,-6.22938 -0.53174,-7.20052 -6.97441,-12.87353 -3.20535,-2.82246 -8.42795,-6.83838 -11.60576,-8.92429 -3.17782,-2.0859 -8.1139,-5.45476 -10.96909,-7.48634 -2.85519,-2.03157 -6.56682,-4.65937 -8.24809,-5.83957 -3.40495,-2.39018 -14.19271,-8.71405 -14.86509,-8.71405 -0.35113,0 -17.27727,-8.24832 -36.26766,-17.67367 -6.73821,-3.34432 -13.34191,-4.3204 -16.90595,-2.49884 -3.72278,1.9027 -11.98213,9.02429 -18.23522,15.72327 -7.41794,7.94687 -11.11874,10.8404 -25.58645,20.00508 -2.40559,1.52383 -5.97174,4.27202 -7.92476,6.10706 -1.95303,1.83504 -4.60759,4.10047 -5.89904,5.03427 -4.0054,2.89622 -13.85618,12.18703 -13.67418,12.89688 0.095,0.37056 5.55837,5.79089 12.14079,12.04518 22.41166,21.29444 34.53353,31.12763 39.82003,42.01852 3.23069,6.65566 2.59639,12.76904 3.49588,22.85139 0.34564,3.87432 0.18589,11.92391 0.812,18.58817 0.62613,6.66427 1.13839,12.27764 1.13839,12.47416 0,0.19651 0.77092,0.3573 1.71314,0.3573 1.16796,0 2.63846,-0.79391 4.62094,-2.49483 z m -53.55273,-13.50144 c -0.78115,-10.38137 -1.42217,-13.42251 -3.86657,-18.34434 -2.51976,-5.07354 -7.90179,-12.65411 -13.96184,-19.66513 -4.86731,-5.63111 -19.94119,-22.02219 -22.50971,-24.47666 l -1.96361,-1.87642 -6.97691,6.82777 -6.9769,6.82778 0.39559,6.20202 c 0.58813,9.22172 0.79963,9.69245 6.38714,14.21466 2.65268,2.14694 8.12499,6.08984 12.16074,8.76202 4.03575,2.67217 9.58309,6.73919 12.3274,9.03784 4.31819,3.61693 11.43806,8.92084 21.49496,16.01257 1.48802,1.0493 2.97388,1.90782 3.30189,1.90782 0.39031,0 0.45521,-1.87632 0.18782,-5.42993 z m -52.10192,-64.33594 4.87529,-4.5503 -5.64584,-5.46185 c -3.10525,-3.00402 -5.78765,-5.32005 -5.961,-5.14673 -0.17326,0.17332 -0.0248,2.98482 0.33029,6.24778 0.35497,3.26296 0.64545,7.63934 0.64545,9.72527 0,2.08593 0.19811,3.77989 0.44026,3.76436 0.24214,-0.0155 2.63415,-2.07587 5.31555,-4.57853 z m 41.40427,-39.66053 c 3.28082,-2.39251 9.00296,-7.05509 12.71585,-10.3613 8.38326,-7.465 17.63351,-15.18606 26.3404,-21.98599 l 6.67527,-5.21327 -0.38674,-5.02031 c -0.2127,-2.76116 -0.65303,-6.54126 -0.97849,-8.40021 -0.32546,-1.85895 -1.23559,-9.65162 -2.02252,-17.31705 -2.25631,-21.97893 -3.71017,-32.99221 -5.67564,-42.99459 -1.15148,-5.85989 -1.6103,-9.21898 -3.6244,-26.53416 -1.36188,-11.70806 -2.19746,-16.57656 -2.92509,-17.043 -2.13941,-1.3715 -6.38306,0.82863 -27.68094,14.35125 -17.4314,11.06769 -27.04923,19.88093 -40.86257,37.44417 -8.83822,11.23758 -11.00918,14.60254 -12.53286,19.42588 -2.75091,8.70824 -3.99604,16.15566 -4.06373,24.30704 -0.0605,7.25135 0.022,7.82118 1.65924,11.44687 0.94749,2.09859 2.92547,5.26849 4.39549,7.04422 12.55689,15.16771 40.53861,45.20046 42.11363,45.20046 0.48838,0 3.57227,-1.9575 6.8531,-4.35001 z m 173.45781,-18.25719 c -0.36774,-11.27134 0.75579,4.64745 0.37893,1.90314 -1.03606,-7.54367 -1.31661,-18.63558 -2.27796,-21.34655 -3.58132,-10.09925 -12.11136,-19.52534 -25.88313,-34.14448 -4.84291,-5.14089 -10.65282,-11.69504 -12.91091,-14.56479 -5.14001,-6.53229 -15.71888,-17.4359 -23.75611,-24.48534 -3.37812,-2.96294 -7.60465,-6.73631 -9.3923,-8.38526 -1.78765,-1.64897 -4.74441,-4.15847 -6.57057,-5.57669 -1.82616,-1.41822 -6.0207,-4.95601 -9.32121,-7.86175 -6.56034,-5.77568 -11.10631,-9.32092 -11.47684,-8.95038 -0.55594,0.55593 4.33561,51.23179 5.59527,57.96646 1.00544,5.37548 1.78963,13.51763 1.79137,18.59963 0.002,6.20291 0.52607,7.56369 3.09792,8.04617 5.62675,1.05559 19.0791,7.70968 29.27205,14.47917 7.98461,5.30285 27.77102,17.33071 36.60643,22.25248 11.15659,6.21479 22.05129,12.7035 24.06748,14.33422 0.96842,0.78327 1.92531,1.32244 2.12641,1.19816 0.20111,-0.1243 -1.27239,-11.18261 -1.34683,-13.46419 z m -119.9169,-26.14381 c 2.49631,-2.60558 11.96907,-8.58414 15.93078,-10.05441 1.87749,-0.69678 3.62072,-1.443 3.87386,-1.65828 0.25312,-0.21528 -0.21522,-7.5015 -1.04076,-16.19159 -3.93888,-41.46271 -4.50888,-47.03085 -4.98255,-48.67325 -0.56927,-1.97388 -2.04306,-11.98359 -2.92756,-19.88339 -0.32071,-2.86436 -0.90127,-5.59129 -1.29015,-6.05985 -1.19292,-1.43739 -4.58462,-2.88045 -11.93894,-5.07968 -9.47291,-2.83277 -9.82688,-2.89794 -10.98746,-2.02307 -0.9076,0.68416 -0.95647,1.46248 -0.4901,7.80418 0.28492,3.87432 0.9318,9.55373 1.43751,12.6209 0.50571,3.06718 1.73704,14.16183 2.7363,24.6548 0.99925,10.49296 2.05434,20.13474 2.34461,21.42619 0.29029,1.29144 0.53957,4.32927 0.55396,6.75072 0.0144,2.42145 0.30032,6.11967 0.63543,8.21826 0.58173,3.64308 1.46352,10.78019 2.95543,23.92102 0.37571,3.30932 0.86132,6.01695 1.07915,6.01695 0.21783,0 1.16755,-0.80528 2.11049,-1.7895 z"
       id="path1"
       sodipodi:nodetypes="sssssssscscsssssscsccsccscscssssssssssssssssssssssssssssssssssssssssssssssssssssssssssccssssssssssssscsssscssssssscsssssscsssssssssssssssssssssssssssssssssssssssssssssssssssscssssssscssssssssssssssscssssscsssssssscscssscssscsssssssscssssssssssssssssssssssscccsssssssscssssssssscssssssssscccssssssssssssscssssssssssssssssssssssss" />
    <path
       style="fill:#000000;stroke-width:0.933353"
       d="m 542.1364,270.11737 c -12.1155,-0.55618 -27.6943,-2.40247 -37.80412,-4.48029 -14.44357,-2.96851 -33.93536,-9.3611 -45.28237,-14.85093 l -6.62625,-3.20587 -13.08616,4.06514 c -7.19739,2.23581 -13.89258,4.38032 -14.8782,4.76556 -0.98562,0.38526 -4.7489,1.52465 -8.36284,2.53202 -3.61394,1.00736 -7.91483,2.20932 -9.55753,2.67101 -6.85492,1.92664 -10.74379,-0.60062 -10.72,-6.96659 0.0161,-4.31305 1.66875,-7.82949 8.4499,-17.97964 5.26884,-7.88651 11.52896,-18.42716 11.52896,-19.41222 0,-0.27644 -1.18313,-3.3358 -2.62918,-6.79858 -4.36872,-10.46156 -4.81946,-12.47098 -4.82908,-21.5283 -0.0141,-13.23345 2.1671,-18.15977 14.58179,-32.93425 1.83151,-2.17964 4.47791,-5.32713 5.88089,-6.99444 2.26933,-2.69688 7.02419,-6.66813 13.86579,-11.58067 12.31333,-8.84147 43.26645,-17.02743 83.0414,-21.96137 27.91706,-3.46303 57.23771,-2.40719 83.76913,3.01651 18.39468,3.76035 32.5344,9.1917 47.34824,18.18745 6.97292,4.23431 16.98459,11.19725 20.35507,14.15656 2.16326,1.89937 8.94305,11.35999 10.88855,15.19404 3.1418,6.19165 6.68784,20.61686 6.68784,27.20601 v 3.56053 l 5.92202,6.51685 c 11.0896,12.20352 20.04149,24.0768 23.09121,30.62691 3.13686,6.73723 1.03243,11.69162 -5.18514,12.20722 -4.56635,0.37868 -9.39425,-1.62767 -25.29831,-10.5133 l -13.04525,-7.28841 -5.85503,5.81989 c -4.36127,4.33511 -7.60719,6.89096 -12.72294,10.01813 -9.86002,6.02726 -12.84351,7.91908 -15.97947,10.1325 -8.26721,5.83517 -29.52108,11.21357 -56.65728,14.33743 -4.43529,0.51058 -10.08021,1.19013 -12.54426,1.5101 -5.11689,0.66447 -19.5059,0.65232 -34.34738,-0.029 z m 28.97127,-6.85941 c 12.61016,-1.40487 33.42582,-4.59551 36.51237,-5.59665 2.09465,-0.67941 7.30293,-2.15012 11.57395,-3.26824 9.59451,-2.51178 17.52661,-5.84717 32.55534,-13.68929 10.9851,-5.73212 11.9383,-6.36879 16.74308,-11.18308 2.80216,-2.8077 5.89342,-6.3689 6.86947,-7.91375 0.97606,-1.54487 1.98877,-2.80933 2.2505,-2.80992 0.6977,-0.002 9.42066,5.06964 15.95116,9.27342 12.82211,8.25379 21.96376,12.60692 23.41892,11.15176 0.93093,-0.93093 0.13163,-2.50099 -3.70859,-7.28465 -1.71434,-2.13551 -3.96083,-4.94471 -4.99219,-6.24267 -2.87518,-3.61838 -5.02948,-6.04933 -10.30606,-11.6295 -2.66572,-2.8191 -6.33934,-6.84514 -8.1636,-8.94675 l -3.31682,-3.82113 -0.24049,-9.61915 c -0.19432,-7.77201 -0.4818,-10.32326 -1.49711,-13.28587 -3.4742,-10.13753 -10.57372,-19.7167 -18.79892,-25.36483 -8.59852,-5.90448 -26.0723,-15.18459 -36.60981,-19.44301 -4.18055,-1.68945 -19.50776,-6.14764 -25.98454,-7.55805 -2.46405,-0.53659 -6.36173,-1.38101 -8.66151,-1.87649 -4.92253,-1.06055 -16.65263,-2.20369 -20.9071,-2.03748 -1.6427,0.0642 -8.54497,-0.18209 -15.33839,-0.54723 -9.99132,-0.53705 -14.15778,-0.50275 -21.80311,0.17951 -5.1983,0.46388 -11.0333,0.85129 -12.96666,0.86091 -1.93337,0.01 -5.15903,0.28077 -7.16815,0.60257 -2.00912,0.32179 -6.82716,1.00255 -10.70676,1.51279 -19.35539,2.54563 -46.17782,12.15705 -59.84891,21.44598 -21.65085,14.71083 -32.40328,44.85725 -23.01537,64.52784 3.13296,6.56453 3.0877,7.15049 -1.02443,13.25865 -1.9609,2.91272 -6.17126,9.19354 -9.35636,13.95737 -3.18509,4.76383 -6.64253,9.81511 -7.68319,11.22506 -1.52295,2.06339 -1.76295,2.76266 -1.23012,3.58407 1.32925,2.04919 8.84502,0.66876 17.8183,-3.27271 6.35175,-2.78997 17.68214,-6.76531 25.2218,-8.84921 l 6.10674,-1.68787 5.9224,2.78573 c 3.25732,1.53216 6.10238,2.78573 6.32237,2.78573 0.21999,0 2.92955,1.20598 6.02126,2.67994 5.47606,2.61071 8.90903,3.70859 20.59355,6.58597 9.623,2.36972 26.14193,5.4564 35.17992,6.57362 1.44352,0.17844 2.81488,0.44204 3.04746,0.58579 0.46177,0.28538 9.01994,1.164 23.00056,2.36134 8.41038,0.72028 11.67621,0.7184 18.21904,-0.0105 z m -46.10572,-54.79044 c -3.12914,-2.90517 -2.93588,-8.84684 0.39615,-12.17886 1.61938,-1.61939 2.44645,-1.98387 4.50175,-1.98387 2.14543,0 2.82064,0.33053 4.56451,2.23439 2.48509,2.71309 2.95756,4.35349 2.08892,7.25273 -1.00755,3.36291 -3.65234,5.56254 -7.08255,5.89041 -2.44195,0.23342 -3.10224,0.0539 -4.46878,-1.2148 z m 20.4548,-1.87995 c -3.14428,-3.34692 -1.83126,-9.21875 2.52352,-11.28523 2.73665,-1.29862 4.50623,-1.25476 6.66012,0.16509 3.23059,2.12963 4.09534,5.1738 2.40066,8.45097 -2.09929,4.05957 -8.82273,5.60874 -11.5843,2.66917 z m 24.00367,0.59676 c -2.17735,-0.98329 -3.13152,-2.89423 -3.13152,-6.27155 0,-1.92861 0.40666,-2.64926 2.67471,-4.73988 3.11451,-2.87084 5.3462,-3.18726 8.28397,-1.1745 4.58986,3.14465 5.26049,6.5804 2.01687,10.33271 -1.68724,1.95184 -2.36891,2.29746 -4.9281,2.49859 -1.81343,0.14252 -3.72779,-0.10879 -4.91593,-0.64537 z"
       id="path3" />
    <path
       style="fill:#000000;stroke-width:0.933353"
       d="m 835.08973,679.55584 c -5.36573,-0.63124 -9.2466,-2.72945 -11.01063,-5.95296 -1.43874,-2.62906 -1.45262,-2.8098 -1.40337,-18.28722 0.0515,-16.19784 0.96038,-42.77328 1.95993,-57.30975 0.31627,-4.59956 0.64737,-9.96472 0.73579,-11.92256 0.17966,-3.97857 0.63099,-3.50479 -6.0869,-6.38956 -1.7935,-0.77015 -4.84885,-2.56519 -6.78966,-3.98895 -1.94082,-1.42377 -3.72078,-2.36458 -3.95549,-2.09071 -0.2347,0.27387 -0.889,2.22276 -1.454,4.33086 -0.56501,2.1081 -1.59426,4.62916 -2.28724,5.60235 -1.23971,1.74102 -1.32503,1.76341 -5.30899,1.39313 -2.22697,-0.20697 -4.71235,-0.6285 -5.52306,-0.93674 -0.81071,-0.30823 -3.70166,-0.86542 -6.42433,-1.23821 -2.72267,-0.37278 -5.6969,-1.06386 -6.60939,-1.53573 -3.61611,-1.86997 -4.52211,-6.06097 -4.23028,-19.56858 0.26873,-12.43842 0.92054,-10.9591 -7.61909,-17.29232 -13.45055,-9.97531 -37.94313,-30.53693 -55.53533,-46.62212 -3.11132,-2.8448 -5.86658,-5.17237 -6.12279,-5.17237 -0.2562,0 -0.46648,0.60481 -0.46728,1.34403 -8e-4,0.73921 -0.25921,4.8385 -0.57427,9.10952 -0.31504,4.27102 -0.72095,15.82966 -0.90199,25.68586 -0.63017,34.30585 -1.34006,49.8302 -2.34901,51.37006 -0.5708,0.87114 -2.22179,1.81011 -4.36948,2.48507 -2.95475,0.92858 -5.64638,1.086 -18.68435,1.09277 l -15.23232,0.007 -2.8181,-1.65658 c -2.26345,-1.33053 -2.94368,-2.12291 -3.45612,-4.02594 -0.40816,-1.51582 -0.6379,-12.10893 -0.63771,-29.40539 1.6e-4,-14.86982 -0.13104,-46.52444 -0.29155,-70.34359 -0.23563,-34.96413 -0.11357,-46.12707 0.63355,-57.94253 1.61897,-25.60342 3.86316,-43.31118 6.58627,-51.96907 3.09749,-9.84823 3.51456,-10.37841 26.54909,-33.75003 84.72066,-85.96043 98.98062,-99.29859 116.09107,-108.58667 7.36395,-3.99738 13.1637,-6.12066 19.95229,-7.30448 5.86677,-1.02309 17.19575,-1.15968 22.86705,-0.27571 8.21654,1.28069 18.477,5.51759 26.32705,10.87138 2.1114,1.43997 6.89294,4.29534 10.62568,6.34524 3.73266,2.0499 8.83997,5.10723 11.34957,6.79406 5.77997,3.8851 20.40253,15.72302 21.58714,17.47623 0.49281,0.72936 7.34016,6.80969 15.21626,13.51186 18.27847,15.55405 27.82067,24.35453 32.04727,29.55656 4.1014,5.04766 5.2099,7.15444 5.7056,10.84347 0.2873,2.13768 0.9646,3.51246 2.7164,5.51395 2.93173,3.3497 7.15093,11.08594 8.77583,16.09131 1.5225,4.68971 2.8863,12.39113 3.4083,19.24607 0.6578,8.6368 -0.5708,13.01686 -8.6924,30.98979 -2.54663,5.63571 -3.19983,7.78138 -3.63723,11.94691 -0.2931,2.79259 -0.9534,8.3031 -1.4671,12.24558 -0.9781,7.50626 -3.6109,41.83352 -4.1921,54.65713 -0.1861,4.10675 -0.4544,7.87003 -0.5965,8.36284 -1.4112,4.89844 -6.8564,86.35051 -6.9041,103.27475 -0.017,6.11432 -0.2677,15.68663 -0.5569,21.27181 -0.289,5.58519 -0.8242,16.33741 -1.1894,23.89383 -0.7204,14.90811 -1.8689,23.89681 -3.4729,27.17923 -1.8791,3.84557 -10.6206,6.59632 -22.33323,7.02775 -9.7191,0.35802 -13.48499,-0.63293 -16.09436,-4.23502 -2.16473,-2.98831 -2.16622,-3.18423 -0.24632,-30.86798 0.80894,-11.66317 1.88696,-27.3883 2.39573,-34.94472 1.98655,-29.50687 3.31191,-47.92287 3.66481,-50.92372 0.24277,-2.06426 0.14962,-3.13606 -0.27235,-3.13606 -1.5055,0 -48.53019,40.82831 -50.9122,44.20358 -0.79967,1.13312 -1.21581,3.65487 -1.72505,10.45355 -0.36913,4.9281 -0.92401,10.43861 -1.23306,12.24558 -0.50208,2.93549 -1.84499,21.69729 -2.71501,37.93145 -0.17608,3.2854 -0.83129,11.08076 -1.45604,17.32303 -0.62476,6.24226 -1.30474,13.42616 -1.51109,15.96423 -0.72794,8.95377 -3.48519,10.60034 -17.59903,10.50977 -4.76383,-0.0306 -10.27434,-0.24532 -12.24558,-0.47722 z m 15.53099,-7.66821 4.77876,-1.6029 1.36769,-4.18142 c 2.97696,-9.10144 5.58186,-28.83664 5.83454,-44.20357 0.35719,-21.72426 0.88734,-35.25855 1.4741,-37.63278 0.32478,-1.31416 0.84041,-10.18475 1.14585,-19.71241 0.30543,-9.52766 0.83695,-19.74227 1.18113,-22.69913 0.3442,-2.95686 0.89798,-10.34902 1.23065,-16.42701 0.88055,-16.08811 3.08039,-25.13153 7.77211,-31.9507 1.04976,-1.52578 6.52044,-7.55365 12.15707,-13.39527 15.50634,-16.07033 36.06595,-37.89111 41.68147,-44.2383 2.75274,-3.11146 10.41556,-11.2078 17.02842,-17.99187 13.0463,-13.38394 16.5223,-17.66811 22.5175,-27.75317 4.1683,-7.01184 5.7835,-11.56701 8.1434,-22.96728 2.40953,-11.63968 2.22593,-20.16303 -0.5969,-27.70761 -1.4265,-3.81258 -3.6649,-7.32497 -4.4783,-7.02708 -0.3155,0.11551 1.97019,-1.31378 -0.18641,2.84173 -7.8615,15.14831 -13.72519,22.34343 -31.36618,44.43722 -23.17635,29.02626 -33.48663,40.60087 -61.72342,69.29209 -32.62163,33.14667 -33.70176,34.69626 -39.55564,56.74783 -1.91675,7.22044 -2.82468,16.45886 -2.99398,30.46463 -0.086,7.11002 -1.13057,23.23103 -1.54924,23.90845 -0.24813,0.4015 -0.77297,11.46105 -1.17571,24.77522 -0.12919,4.27103 -0.39337,10.72236 -0.58705,14.3363 -0.19368,3.61394 -0.47137,9.66207 -0.61709,13.44028 -0.14573,3.77821 -0.59201,14.26163 -0.99175,23.29648 -0.39973,9.03485 -0.72098,19.86464 -0.71388,24.06621 0.0113,6.66725 0.16326,7.84057 1.19461,9.22194 3.89283,5.21403 9.20458,5.95716 19.02825,2.66212 z m 92.54879,-23.85107 c 1.6437,-0.58468 4.3252,-2.30554 6.0632,-3.89106 3.4006,-3.10235 3.0996,-2.17022 4.377,-13.55399 0.3483,-3.10448 0.7647,-13.85671 0.9252,-23.89383 0.2924,-18.27523 0.6249,-28.41914 1.2252,-37.36436 0.1764,-2.62832 0.5763,-14.99338 0.8887,-27.4779 0.5726,-22.87695 1.1315,-31.45702 2.7628,-42.41155 1.4958,-10.04488 4.1427,-50.36827 4.6955,-71.5335 0.1867,-7.14651 0.6024,-14.38056 0.924,-16.07568 0.3214,-1.69512 0.4256,-3.24014 0.2313,-3.43337 -0.1941,-0.19323 -1.2034,0.72025 -2.2428,2.02995 -2.9405,3.70505 -9.6159,11.32049 -16.239,18.52582 -8.69282,9.45699 -8.64578,9.31198 -9.27896,28.62345 -0.80427,24.52777 -1.15185,31.18224 -2.04666,39.17528 -0.45968,4.10675 -1.00559,12.84293 -1.21317,19.41373 -0.49953,15.81079 -2.59901,35.10477 -4.48513,41.21685 -0.30418,0.98562 -0.83433,8.34755 -1.17817,16.35985 -0.34385,8.0123 -0.89229,17.01729 -1.21878,20.01108 -1.26404,11.59321 -3.06382,35.28645 -3.14633,41.41978 -0.1134,8.43791 0.6764,10.36723 5.08407,12.41922 3.89058,1.81129 9.5159,1.98981 13.87203,0.44023 z M 801.35447,576.46258 c 0.93039,-2.44709 0.69803,-6.99557 -0.44133,-8.63905 -1.27328,-1.83666 -2.42139,-2.75433 -8.97834,-7.17629 -2.87655,-1.93992 -5.97002,-4.12505 -6.8744,-4.85585 -1.15121,-0.93026 -1.83292,-1.14013 -2.27322,-0.69984 -1.39863,1.39864 -1.88946,11.4941 -0.81549,16.77294 0.49837,2.44958 3.08943,3.55374 12.19985,5.19886 6.32813,1.14271 6.52638,1.12613 7.18293,-0.60077 z m -109.58929,-1.32762 c 2.65151,-1.35937 4.73687,-3.42996 5.24143,-5.2043 1.41137,-4.96324 2.05574,-19.81873 2.5061,-57.77616 l 0.33823,-28.50622 -2.35161,-3.89901 c -2.889,-4.79003 -3.87024,-9.50312 -3.85495,-18.51601 0.0134,-7.93198 1.50618,-23.86831 2.44929,-26.14879 0.37262,-0.90096 1.82733,-2.88512 3.23272,-4.40924 l 2.55525,-2.77113 0.36563,-10.5244 c 0.43487,-12.51743 2.81978,-25.65209 6.56429,-36.15235 2.99221,-8.39067 4.10685,-10.2152 10.48531,-17.1631 6.31776,-6.88177 6.74631,-7.41283 17.04727,-21.12493 8.8966,-11.8427 17.35234,-20.79765 31.84286,-33.72283 4.92811,-4.39574 14.07144,-12.98746 20.31852,-19.09271 12.08229,-11.80796 16.42219,-15.44326 23.58639,-19.75702 2.46405,-1.48368 5.28651,-3.25871 6.27213,-3.94451 2.56945,-1.78785 11.15117,-5.29542 16.71089,-6.83017 7.64708,-2.11098 12.22152,-1.58417 20.38537,2.34766 3.58049,1.72442 7.04759,3.61189 7.70467,4.19437 0.65708,0.58248 3.48068,2.25834 6.27466,3.72411 2.79398,1.46577 7.63248,4.28693 10.75223,6.26923 3.11974,1.9823 8.3603,5.28995 11.6457,7.35035 16.76908,10.51645 18.88499,12.13418 22.69913,17.35446 1.31416,1.79866 3.90907,4.95092 5.76653,7.00501 3.80276,4.2054 15.22821,21.12384 18.25937,27.03788 3.22884,6.29979 4.47122,15.77575 3.10032,23.64779 -1.00532,5.7729 -0.56711,6.40837 1.8031,2.61511 1.1222,-1.7958 4.6031,-7.29693 7.7355,-12.22474 7.749,-12.19076 11.2153,-18.96855 12.6967,-24.82667 1.9983,-7.90198 1.2704,-10.27535 -5.9426,-19.37744 -4.5046,-5.6844 -14.4526,-15.84685 -19.43185,-19.8508 -2.24845,-1.80807 -5.73741,-4.75903 -7.75317,-6.55768 -2.01586,-1.79864 -7.29947,-5.99733 -11.74148,-9.3304 -4.44211,-3.33307 -9.55492,-7.55419 -11.36189,-9.38025 -7.65303,-7.73387 -25.61181,-20.80432 -35.31552,-25.70275 -6.09335,-3.07591 -12.99884,-5.37347 -21.73098,-7.23025 -12.7133,-2.70331 -20.40451,-2.02459 -31.65933,2.7938 -11.17232,4.78307 -18.94394,9.39935 -25.71002,15.27154 -8.25283,7.16252 -20.36849,19.01526 -25.49948,24.94611 -3.03008,3.50245 -6.67924,7.57771 -8.10924,9.05614 -1.42999,1.47843 -3.82427,4.22863 -5.32061,6.11155 -1.49633,1.88292 -5.17138,5.49869 -8.16677,8.03506 -6.50562,5.50867 -20.92576,18.96455 -29.65026,27.66759 -3.45818,3.44967 -9.77813,9.52304 -14.04432,13.49638 -4.26621,3.97334 -8.95389,8.81184 -10.41708,10.75222 -1.46319,1.94038 -4.04563,5.1408 -5.73875,7.11204 -6.33607,7.37686 -12.05218,16.26413 -13.57121,21.10017 -2.36934,7.54317 -3.37456,12.61738 -3.74848,18.92199 -0.19484,3.2854 -0.60912,6.77603 -0.9206,7.75695 -0.31148,0.98091 -0.70129,6.62583 -0.86625,12.54426 -0.16496,5.91842 -0.57522,11.61714 -0.91169,12.66382 -0.33648,1.04668 -0.58477,3.60033 -0.55176,5.67478 0.033,2.07445 -0.0392,12.37351 -0.16046,22.8868 -0.14698,12.74372 0.0395,21.90252 0.55926,27.47789 0.42886,4.59956 0.63283,11.1853 0.45329,14.63497 -0.17954,3.44967 -0.44584,13.26107 -0.59177,21.80311 -0.14593,8.54205 -0.42402,24.22421 -0.61797,34.84926 l -0.35264,19.31826 1.65204,1.72436 c 0.90862,0.9484 2.61572,2.04665 3.79356,2.44056 5.45038,1.82277 17.25109,1.5115 21.295,-0.56172 z m 134.918,-2.06823 c 0.15275,-0.73922 0.43633,-3.89768 0.63017,-7.01881 0.19385,-3.12114 0.50299,-6.78569 0.687,-8.14347 l 0.33455,-2.46869 -3.44569,-1.57749 c -2.26176,-1.03547 -5.20618,-3.26721 -8.56949,-6.4953 -9.96342,-9.56285 -24.80663,-21.25344 -59.78096,-47.08378 -24.83144,-18.33931 -26.0962,-19.24917 -28.37392,-20.41199 -0.98562,-0.50318 -3.94248,-2.97244 -6.5708,-5.48726 -2.62832,-2.51482 -5.76743,-5.25209 -6.97579,-6.08281 -3.00588,-2.06648 -9.18588,-9.28752 -10.98195,-12.83191 -0.81187,-1.60213 -1.719,-2.91297 -2.01585,-2.91297 -0.84567,0 -1.43038,7.44861 -0.99475,12.67206 0.74525,8.93629 2.05566,11.11127 13.80019,22.90512 12.42612,12.4783 39.17045,34.16269 81.83636,66.35319 8.42332,6.35521 28.52474,19.82019 29.70657,19.89901 0.24015,0.0161 0.56161,-0.57569 0.71436,-1.3149 z m 48.47482,-8.49871 c 1.11617,-1.70351 14.56001,-13.65588 31.06999,-27.623 11.97267,-10.12868 16.64625,-14.77385 19.00716,-18.89147 1.19684,-2.08728 1.48907,-3.65457 1.8402,-9.86905 0.34534,-6.11035 0.27861,-7.30313 -0.38575,-6.8985 -2.36512,1.44043 -17.25181,13.08162 -35.68506,27.90517 -2.77766,2.23378 -7.54196,5.69654 -10.58721,7.69502 -3.04525,1.99848 -5.6761,3.99654 -5.84633,4.44015 -0.17022,0.4436 -0.58767,4.9106 -0.92766,9.92667 -0.33999,5.01607 -0.76273,10.39695 -0.93941,11.95751 -0.25759,2.27511 -0.14233,2.8374 0.58157,2.8374 0.49656,0 1.33918,-0.66596 1.8725,-1.4799 z m -47.29965,-21.11693 c 0.16826,-0.27226 0.73079,-7.73162 1.25005,-16.57634 1.21457,-20.68799 2.2677,-28.57598 4.54572,-34.04804 4.5765,-10.99326 12.67264,-21.26717 32.97052,-41.83925 l 16.00394,-16.22011 -5.04796,-4.5952 c -2.77637,-2.52736 -6.75247,-5.82752 -8.83577,-7.33369 -2.08331,-1.50617 -5.16032,-3.9713 -6.83781,-5.47808 -1.67748,-1.50677 26.43734,20.25564 21.82616,17.64641 -11.91762,-6.74357 -47.77343,-34.47273 -57.02506,-43.39885 -9.32005,-8.99212 -16.08172,-13.9253 -19.93027,-14.5407 -3.28672,-0.52558 -8.85526,0.91924 -13.67225,3.54739 -2.06467,1.1265 -4.02995,2.04818 -4.36727,2.04818 -0.33732,0 -4.15855,1.97815 -8.49162,4.39591 -4.33307,2.41776 -12.2237,6.58932 -17.53473,9.27015 -9.49508,4.79279 -21.0407,12.00852 -25.24548,15.7778 -1.17603,1.05423 -5.478,4.20163 -9.55992,6.99422 -7.35241,5.03003 -15.96294,12.20181 -19.53719,16.27266 -1.38973,1.58281 -1.94676,2.9119 -2.22714,5.31396 -0.56433,4.83467 0.27207,7.10773 4.74163,12.8861 5.8258,7.53175 12.50136,13.70875 21.96712,20.32653 4.54864,3.18008 10.05915,7.32107 12.24559,9.2022 4.03048,3.46768 35.9381,26.06643 43.70148,30.95182 2.3278,1.46486 6.97556,5.0264 10.32836,7.91455 3.3528,2.88814 8.11203,6.87287 10.57608,8.85495 2.46405,1.98208 6.22733,5.21294 8.36284,7.17967 5.6446,5.19849 8.84627,6.97956 9.79298,5.44776 z m 54.42169,-16.80257 c 2.29978,-1.83637 6.31589,-4.92314 8.9247,-6.8595 2.60891,-1.93637 6.24609,-4.90217 8.08274,-6.59068 3.59266,-3.30279 7.43304,-6.234 14.05452,-10.72716 3.87472,-2.62927 7.69185,-5.69288 12.75856,-10.23988 2.00913,-1.80309 2.05673,-1.95795 2.62123,-8.52118 0.31622,-3.67659 0.41655,-7.31557 0.22307,-8.08661 -0.19358,-0.77104 -3.45537,-4.29635 -7.24842,-7.83401 l -6.89664,-6.43212 -3.50567,3.81093 c -5.67898,6.17361 -20.17759,23.16022 -23.63827,27.69479 -5.22234,6.8428 -9.58341,14.25677 -10.95234,18.6193 -1.19781,3.81719 -2.78265,18.95591 -2.10026,20.06217 0.36112,0.58544 2.60114,-0.84318 7.67678,-4.89605 z m 48.32236,-71.40822 0.38818,-9.55753 -5.71968,5.67479 -5.71977,5.67478 2.55944,2.09071 c 1.40768,1.14989 3.63942,3.08227 4.95955,4.29417 1.32014,1.2119 2.56756,2.01832 2.77215,1.79204 0.2046,-0.22629 0.54667,-4.71231 0.76013,-9.96896 z m -35.70606,-33.30202 c 8.42771,-8.74484 23.07453,-25.71323 35.01911,-40.56971 1.23044,-1.53041 3.08156,-4.88935 4.11347,-7.4643 1.81183,-4.521 1.86353,-4.89709 1.50699,-10.95387 -0.37931,-6.44376 -2.24023,-15.28576 -4.9351,-23.44891 -1.64177,-4.97308 -3.4254,-7.56013 -13.89734,-20.15733 -14.63292,-17.60248 -24.99453,-25.88125 -51.14066,-40.8608 -11.15333,-6.38993 -13.51541,-7.52419 -15.66894,-7.52419 -2.98865,0 -2.83136,-0.40189 -3.74079,9.55753 -1.78461,19.54388 -2.79169,28.58153 -4.19346,37.63277 -1.28062,8.26896 -1.56571,11.11391 -3.23245,32.25667 -0.53095,6.73507 -1.36497,16.41854 -1.85339,21.51883 -0.48842,5.10028 -0.88803,10.80903 -0.88803,12.6861 0,3.32871 0.0585,3.44983 2.37544,4.91242 4.22636,2.66798 21.00885,15.52963 28.95962,22.19387 7.76152,6.50562 19.29512,17.09347 20.52957,17.13843 0.36233,0.0132 4.11719,-3.87851 7.04596,-6.91751 z m -180.17177,-2.76531 c 1.80697,-1.25568 9.60233,-6.07922 17.32302,-10.71895 13.84525,-8.32027 25.04618,-15.49962 40.80381,-26.15361 8.29729,-5.60993 16.96042,-10.20537 23.63644,-12.53815 2.10307,-0.73487 4.03575,-1.67915 4.29487,-2.09841 0.25912,-0.41925 0.4765,-3.86894 0.48309,-7.66597 0.007,-3.79703 0.30434,-9.45734 0.6617,-12.57847 0.86997,-7.59836 1.53625,-15.51342 2.69015,-31.95799 1.84962,-26.35941 2.05594,-29.80994 1.79788,-30.068 -0.66015,-0.66014 -3.22473,1.57433 -30.93682,26.9547 -12.13582,11.11471 -20.99943,20.4598 -27.60146,29.10083 -4.8086,6.29371 -9.65114,12.022 -17.4286,20.61654 -10.08604,11.14562 -16.57696,22.51248 -18.41349,32.24556 -1.53608,8.14081 -2.18172,12.61666 -2.71427,18.81638 -0.29633,3.44968 -0.72416,7.33463 -0.95076,8.63325 l -0.41198,2.36111 1.74051,-1.33287 c 0.95727,-0.73307 3.21894,-2.36025 5.02591,-3.61595 z m 115.8843,-40.27883 c -4.2e-4,-1.70545 0.25921,-5.25125 0.57695,-7.87958 1.02159,-8.45041 1.86505,-18.39076 2.13072,-25.11099 0.14238,-3.60158 0.5191,-8.83317 0.83717,-11.62576 0.31805,-2.79259 0.99943,-11.52877 1.51416,-19.41374 0.51471,-7.88496 1.32272,-18.09957 1.79557,-22.69913 0.47285,-4.59956 1.0144,-10.83524 1.20347,-13.85705 0.48792,-7.79809 0.14629,-7.91407 -11.64135,-3.95257 -7.04482,2.36757 -11.14098,4.3544 -11.87746,5.76111 -0.37327,0.71296 -0.95077,4.38755 -1.28335,8.16576 -1.0456,11.87826 -1.65351,17.24403 -2.02103,17.83868 -0.38913,0.62964 -1.67694,18.2493 -3.04032,41.59721 -0.47961,8.21351 -1.03617,16.55513 -1.23679,18.53694 l -0.36477,3.6033 4.07646,1.43911 c 4.72232,1.66711 12.59424,6.16279 16.04593,9.16388 1.31416,1.1426 2.59099,1.9551 2.8374,1.80555 0.2464,-0.14955 0.44766,-1.66728 0.44724,-3.37272 z"
       id="path2"
       sodipodi:nodetypes="cssssssssssssssssssssssccssssssssssssssssssssssssccssssssssssssssssccscsssssssssssssssssssssssssssssssssssssssssssscsssssssssssssscsssscssssssssssssssssssssssssssssssssssssssssssssssssscsssssscssssssssssssssssssssssssssssscsssssssssssssssssssssssssssssscsssssscccsssssssssssssssssssssssssscssssssssscssssssssssssssscssss" />
    <path
       style="fill:#b10f18;stroke:#b3111a;stroke-width:0.131959;stroke-opacity:1"
       d="m 524.61479,210.47734 c -1.48286,-0.53352 -3.04125,-2.08485 -3.93964,-3.92181 -0.82973,-1.69658 -1.03947,-2.67246 -1.0352,-4.81654 0.004,-1.95483 0.16849,-2.85322 0.84326,-4.60298 0.94611,-2.45334 3.14521,-4.94562 5.22217,-5.91836 0.75907,-0.3555 0.84219,-0.36533 3.08936,-0.36533 2.28218,0 2.31858,0.004 3.10105,0.38482 0.56677,0.27548 1.16703,0.76296 2.11237,1.71549 3.39007,3.41583 4.32604,5.63952 3.68337,8.75091 -0.48415,2.34394 -1.56256,4.45255 -3.02052,5.90605 -2.01763,2.01148 -4.33238,2.92621 -7.72371,3.05221 -1.38261,0.0513 -1.76001,0.0215 -2.33251,-0.18446 z"
       id="path9" />
    <path
       style="fill:#b10f18;stroke:#b3111a;stroke-width:0.14035;stroke-opacity:1"
       d="m 548.42931,209.60036 c -2.30217,-0.36481 -3.97615,-1.47502 -5.14956,-3.41525 -1.48158,-2.44978 -1.67748,-5.82368 -0.50557,-8.70773 0.89687,-2.2072 2.83376,-4.26788 5.00333,-5.32308 3.96524,-1.92853 6.5785,-1.76085 9.82189,0.63023 2.50204,1.84457 3.78481,4.11251 3.79598,6.71142 0.006,1.50548 -0.28797,2.67341 -1.08133,4.28931 -1.3197,2.68796 -4.19055,4.7802 -7.69032,5.60459 -1.13343,0.26697 -3.18748,0.37007 -4.19442,0.21051 z"
       id="path10" />
    <path
       style="fill:#b10f18;stroke:#b3111a;stroke-width:0.13696;stroke-opacity:1"
       d="m 572.06544,209.88297 c -1.98532,-0.41552 -3.22257,-1.07215 -4.2821,-2.27254 -1.39673,-1.58242 -1.93661,-3.50209 -1.93661,-6.88613 v -2.20043 l 0.45064,-0.98943 c 0.35947,-0.78921 0.76108,-1.31983 1.9847,-2.62232 3.78537,-4.02926 6.25618,-5.09483 9.23638,-3.98328 2.726,1.01674 6.05502,4.16451 7.11161,6.72443 1.27562,3.09066 0.2924,6.45669 -2.90841,9.95681 -1.12252,1.22746 -1.91204,1.75349 -3.20375,2.13445 -1.06554,0.31427 -5.18962,0.40274 -6.45246,0.13841 z"
       id="path11" />
  </g>
</svg>
