<?xml version="1.0" encoding="UTF-8" standalone="no"?>
<!-- Created with Inkscape (http://www.inkscape.org/) -->

<svg
   version="1.1"
   id="svg1"
   width="1120.7286"
   height="793.90161"
   viewBox="0 0 1120.7286 793.90167"
   sodipodi:docname="tarjeta4_conversacion.svg"
   inkscape:export-filename="tarjeta 3_conversacion.svg"
   inkscape:export-xdpi="300"
   inkscape:export-ydpi="300"
   inkscape:version="1.3.2 (091e20e, 2023-11-25, custom)"
   xmlns:inkscape="http://www.inkscape.org/namespaces/inkscape"
   xmlns:sodipodi="http://sodipodi.sourceforge.net/DTD/sodipodi-0.dtd"
   xmlns="http://www.w3.org/2000/svg"
   xmlns:svg="http://www.w3.org/2000/svg">
  <defs
     id="defs1" />
  <sodipodi:namedview
     id="namedview1"
     pagecolor="#ffffff"
     bordercolor="#999999"
     borderopacity="1"
     inkscape:showpageshadow="false"
     inkscape:pageopacity="0"
     inkscape:pagecheckerboard="0"
     inkscape:deskcolor="#d1d1d1"
     inkscape:zoom="0.74683562"
     inkscape:cx="397.00838"
     inkscape:cy="560.36428"
     inkscape:window-width="1920"
     inkscape:window-height="1051"
     inkscape:window-x="-9"
     inkscape:window-y="-9"
     inkscape:window-maximized="1"
     inkscape:current-layer="g1" />
  <g
     inkscape:groupmode="layer"
     inkscape:label="Image"
     id="g1"
     transform="translate(-0.81023921,-3.9654498)">
    <g
       id="g2"
       transform="rotate(90,559.16605,563.60265)">
      <rect
         style="fill:#fffdf8;fill-opacity:1;stroke:#fffdf8;stroke-width:0.999438;stroke-opacity:1"
         id="rect23"
         width="792.90216"
         height="1119.7291"
         x="0.028568706"
         y="1.7296158" />
      <path
         style="fill:#000000;stroke-width:0.981919"
         d="m 658.29408,1002.4774 c -11.2148,-1.2568 -27.73269,-3.8046 -47.13193,-7.26977 -6.73987,-1.20393 -17.76873,-3.04846 -24.5086,-4.09891 -37.32175,-5.81696 -48.63452,-7.9544 -63.78521,-12.05144 -8.09022,-2.1878 -41.13872,-13.10415 -45.06507,-14.88564 -4.77897,-2.16836 -11.34657,-4.92292 -17.46329,-7.32449 -18.402,-7.22523 -33.85073,-18.76715 -40.32885,-30.13026 -5.82839,-10.22342 -8.34562,-17.27081 -9.0895,-25.44752 l -0.42845,-4.70946 -4.69656,-4.38612 c -7.71319,-7.20323 -12.03861,-14.07124 -14.24503,-22.61851 -2.88165,-11.16311 0.90981,-21.79155 11.56168,-32.41037 8.47465,-8.44848 17.69934,-13.63563 30.83283,-17.33765 9.91092,-2.79375 22.44643,-1.95402 49.33142,3.30454 15.20016,2.97314 42.69734,12.40862 58.12938,19.94689 l 1.57106,0.76746 v -13.85607 c 0,-17.31038 1.419,-26.94945 6.06402,-41.19262 9.53755,-29.24517 33.92122,-51.39129 64.10749,-58.22473 7.15989,-1.62074 24.0213,-1.44626 32.5761,0.3372 8.99364,1.87486 13.63339,3.42953 21.24075,7.11692 26.12259,12.66219 43.84389,39.70118 49.54371,75.59343 2.75803,17.36753 1.37667,43.19972 -3.59568,67.24152 -2.25843,10.91979 -3.05475,13.93103 -16.36934,61.89994 -4.96654,17.89315 -9.53073,36.13036 -11.55974,46.18929 -0.90634,4.49325 -3.00994,8.30522 -3.70881,9.43697 -2.76714,4.4808 -6.71423,5.9326 -22.98238,4.1094 z m 12.46486,-11.36789 c 2.11389,-1.13126 1.21083,-5.10478 4.47909,-18.54426 3.32111,-13.65677 7.00155,-27.38335 13.2953,-49.58632 11.85334,-41.81584 15.42839,-60.13495 16.08813,-82.43807 0.53996,-18.25358 -1.11879,-30.46114 -6.2224,-45.79336 -9.94227,-29.86848 -29.71356,-48.08585 -57.38668,-52.87653 -8.71828,-1.5093 -22.17927,-0.92614 -29.47341,1.2768 -23.18642,7.00252 -41.36054,24.31192 -49.28066,46.93593 -4.12278,11.7769 -6.4129,26.02302 -6.37771,39.67379 0.0196,7.6 1.339,20.30441 2.1942,21.12765 0.24034,0.23134 0.90096,-0.28466 1.46803,-1.14678 0.56707,-0.86212 2.85136,-3.83144 5.07619,-6.59847 2.22482,-2.76704 5.03473,-6.72778 6.24423,-8.8016 5.35014,-9.17321 13.88654,-18.10549 26.47354,-27.70107 9.96429,-7.59619 19.75055,-11.89689 27.65073,-12.1513 1.90099,-0.0609 4.45367,-0.21229 5.67264,-0.33581 3.17498,-0.32178 8.66324,0.74272 11.73978,2.27696 6.00161,2.99308 14.25732,13.65177 16.55823,21.37777 1.89997,6.3797 2.11501,9.87492 1.25588,20.41291 -0.94531,11.59513 -1.11251,13.07341 -2.22668,19.68651 -1.80683,10.72458 -4.00759,26.18916 -4.33738,30.47865 -0.18602,2.41944 -0.75278,8.64086 -1.25948,13.82537 -1.0347,10.587 -1.44434,29.93761 -0.80486,38.01975 0.23246,2.93789 0.56762,8.31093 0.74483,11.94009 0.52687,10.79018 1.19053,17.94952 2.12498,22.9235 0.69563,3.70271 0.19502,4.93276 -2.5947,6.37538 -1.63862,0.8474 -13.41395,-1.14511 -18.39856,-2.19463 -11.76362,-2.47684 -3.88926,-0.95512 -35.18278,-8.05136 -47.76105,-10.83048 -58.30566,-17.71345 -79.33664,-26.54863 -4.06235,-1.70667 -8.80007,-3.56572 -10.52824,-4.13121 -5.5131,-1.80417 -20.61043,-9.58605 -24.35699,-12.55477 -4.22265,-3.34597 -9.94361,-10.80578 -12.20033,-15.9087 -0.86969,-1.96648 -2.00945,-5.69854 -2.53281,-8.29345 -0.52336,-2.5949 -1.09588,-5.35811 -1.27229,-6.14031 -0.17639,-0.78219 -2.91845,-3.64418 -6.09345,-6.35996 -3.60413,-3.08282 -6.92954,-6.63078 -8.85212,-9.44455 -2.72611,-3.98982 -3.10823,-4.95955 -3.33063,-8.45233 -0.64979,-10.20484 7.80335,-17.93861 24.70364,-22.60133 10.12413,-2.79315 14.20311,-3.22431 30.635,-3.23777 8.55404,-0.01 15.55313,-0.15858 15.55353,-0.3367 4.2e-4,-0.17822 -4.31182,-1.91631 -9.58274,-3.86226 -22.67762,-8.37269 -41.38415,-11.84119 -57.05767,-10.57942 -22.43478,1.80601 -45.74391,14.33956 -48.97354,26.33347 -1.43528,5.33022 2.03184,12.24968 11.09632,22.14503 6.48063,7.0748 7.74083,9.68178 7.74083,16.01376 0,8.79354 2.60409,15.07112 9.49661,22.89296 10.60039,12.02974 26.6365,22.00491 54.28859,33.77023 23.32854,9.92568 37.58186,14.43424 58.75781,18.58579 10.71402,2.10051 14.46882,2.73757 39.27661,6.66386 12.29669,1.94606 22.47027,3.67404 40.61224,6.89786 5.74629,1.02109 15.644,2.57006 21.9949,3.442 17.45025,2.39597 20.79893,2.47374 22.44089,1.59493 z m -29.69143,-24.01627 c -1.21639,-9.53234 -1.70146,-11.21927 -3.42699,-11.91839 -8.82469,-3.57535 -12.42892,-5.94884 -19.80083,-13.03925 -8.65175,-8.32153 -14.33901,-16.5115 -17.99779,-25.91785 -0.98044,-2.52067 -2.15728,-4.77564 -2.61519,-5.01111 -0.45791,-0.23546 -3.25849,-1.5633 -6.22352,-2.95085 -11.59817,-5.42753 -20.76084,-14.69161 -27.11375,-27.41399 -2.64135,-5.28957 -4.61663,-10.91615 -5.19383,-14.79471 l -0.42482,-2.85463 -4.19007,-0.0393 c -2.30454,-0.0216 -7.018,-0.36694 -10.47433,-0.76737 -22.05864,-2.55533 -29.90888,-3.22382 -37.86265,-3.22411 -4.92529,-3e-4 -8.95508,0.24871 -8.95508,0.5532 0,1.26432 3.40605,9.46429 5.73828,13.81477 2.41858,4.5115 6.11943,9.3006 16.37584,21.1911 8.3872,9.72352 24.21917,23.84385 40.60756,36.21726 6.08091,4.59114 11.35298,8.4588 11.71571,8.5949 1.44189,0.54093 21.06644,15.53291 23.65193,16.84976 0,0 2.53205,2.27502 11.69445,5.79811 14.14972,5.44078 29.20999,8.68826 35.51989,9.46505 0.30375,0.0373 -0.79326,-2.73785 -1.02481,-4.55242 z m -60.92746,-14.15912 c -0.16687,-0.27003 -3.53559,-2.6987 -7.48604,-5.3971 l -7.18263,-4.90604 -4.96245,1.57322 c -5.7984,1.83835 -6.4757,1.32726 7.61505,5.74617 5.17956,1.62429 9.70019,3.04826 10.04582,3.16432 1.20464,0.40464 2.2715,0.30685 1.97025,-0.18057 z m 58.41452,-5.32208 c -0.2227,-0.77767 -0.57739,-7.06979 -0.78822,-13.98248 -0.44209,-14.49552 0.11529,-21.57935 3.2388,-41.16188 3.12328,-19.58116 5.21074,-35.72532 5.6879,-43.98981 0.76172,-13.193 -1.63518,-26.48496 -5.99132,-33.22474 -3.24783,-5.02504 -5.59699,-6.57666 -10.42221,-6.88391 -11.94024,-0.76029 -24.27194,8.27765 -51.21493,37.53554 -8.79841,9.55434 -11.07038,11.84377 -13.02282,13.12311 -1.39909,0.91671 -1.48776,1.27139 -1.12305,4.49196 0.51088,4.51122 1.59395,8.00517 4.33937,13.99878 3.1521,6.88146 5.46015,10.07347 12.0148,16.61636 5.29796,5.2885 6.39474,6.05587 13.60874,9.52154 8.63379,4.1479 8.2074,3.69622 11.84355,12.54534 4.77058,11.60986 16.26777,24.75477 26.91677,30.7743 4.34028,2.45342 5.47515,2.60031 4.91262,0.63589 z m -40.11761,-61.27023 c -2.62703,-0.59828 -1.98748,-2.94487 4.44448,-16.30716 3.46099,-7.19017 7.16256,-15.19396 8.22574,-17.78622 2.18329,-5.32326 7.80782,-14.45379 8.9038,-14.45379 1.01336,0 0.20852,5.87696 -1.71282,12.50714 -1.54038,5.31551 -11.72011,27.61303 -14.86291,32.5554 -1.82059,2.86307 -3.27496,3.877 -4.99829,3.48463 z m -44.93287,54.38082 c 3.0243,-1.11703 5.49872,-2.20293 5.49872,-2.41306 0,-0.21023 -1.34325,-1.34336 -2.98502,-2.51822 -1.64176,-1.17476 -5.8971,-4.47479 -9.45631,-7.33343 -3.55922,-2.85855 -6.67315,-5.19738 -6.91984,-5.19738 -0.93137,0 -19.94135,7.01628 -20.49765,7.56537 -0.35402,0.34936 1.37012,1.47503 4.39898,2.8718 6.08528,2.80641 22.22168,9.00465 23.51975,9.03431 0.51845,0.0118 3.41707,-0.89237 6.44137,-2.00939 z m -34.72052,-15.83289 c 3.62916,-1.52954 8.67803,-3.54747 11.21973,-4.48441 l 4.62127,-1.70343 -1.79335,-1.70539 c -0.98634,-0.93792 -4.64208,-4.43119 -8.12384,-7.76282 l -6.33051,-6.05744 -4.35273,1.25008 c -2.39401,0.68743 -8.52392,2.26793 -13.62203,3.51201 -5.0981,1.24418 -9.26928,2.4921 -9.26928,2.77323 0,1.3079 4.55011,6.27129 8.50545,9.27792 3.83843,2.91776 11.34668,7.623 12.2326,7.6659 0.17282,0.01 3.28353,-1.23622 6.91269,-2.76565 z m -21.05226,-21.21105 c 3.45633,-1.33864 8.47589,-3.02567 11.15455,-3.74914 2.67867,-0.72338 4.8703,-1.44803 4.8703,-1.61035 0,-0.16231 -1.76859,-2.32291 -3.93022,-4.80146 -2.16163,-2.47845 -5.34303,-6.41524 -7.0698,-8.74828 -3.5449,-4.78948 -3.63339,-4.81669 -10.68089,-3.28715 -2.41932,0.52512 -6.51969,1.40472 -9.11194,1.95479 -2.59225,0.55007 -4.78564,1.06479 -4.87418,1.14394 -0.0886,0.0795 1.37358,2.68936 3.24918,5.80056 2.9567,4.90447 5.25007,9.63485 7.36426,15.18984 0.41542,1.09149 0.84767,1.35534 1.65348,1.00941 0.60005,-0.25756 3.91892,-1.5636 7.37526,-2.90216 z m -20.06658,-24.67051 c 1.7045,-0.49008 6.2098,-1.52561 10.01176,-2.30123 3.80198,-0.77551 7.17129,-1.63714 7.48734,-1.91453 0.33552,-0.29447 -0.23369,-2.27893 -1.3678,-4.76857 -1.06836,-2.34531 -2.25694,-5.46613 -2.64127,-6.93507 -0.38433,-1.46895 -0.94012,-2.67081 -1.23508,-2.67081 -0.29497,0 -3.37312,0.56873 -6.84035,1.26382 -9.66534,1.93761 -18.34037,5.91761 -18.34037,8.41442 0,0.68489 8.79329,9.80295 9.45371,9.80295 0.20514,0 1.76757,-0.40092 3.47206,-0.89098 z"
         id="path1"
         sodipodi:nodetypes="sssssssscsssssscssssssssssssssssssssssssscssssssssssssssssssssssscscssssssssssssssssssscscssssssssssssscssssssssssssssssssssssssssssssssssssscsscsssscsssssssscssssssssssssss" />
      <path
         style="fill:#000000;stroke-width:1.00936"
         d="m 402.90304,429.91118 c -16.59965,-2.75666 -36.32847,-14.8318 -49.47022,-30.2786 -7.16967,-8.42723 -13.97777,-20.7536 -17.83567,-32.29217 -5.84247,-17.4744 -7.97494,-31.54647 -8.00378,-52.81686 -0.0117,-8.61597 -0.10221,-15.66532 -0.20117,-15.66522 -1.07305,2.1e-4 -9.07955,4.82655 -15.00082,9.04243 -26.35138,18.76214 -52.57717,28.38434 -80.47511,29.52612 -5.69381,0.23307 -11.12762,0.0817 -14.53475,-0.40565 -6.58619,-0.94153 -17.03999,-4.0558 -21.99151,-6.55134 -9.47904,-4.77759 -19.52909,-15.76586 -24.55233,-26.84437 -8.68568,-19.15578 -1.91435,-46.10744 16.05424,-63.90009 l 4.31132,-4.26907 -0.16011,-5.60487 c -0.47948,-16.78481 7.40801,-34.895 20.79241,-47.74069 6.23951,-5.98842 13.19826,-10.72755 22.06821,-15.02893 3.55293,-1.72297 8.98259,-4.55522 12.0659,-6.29394 10.85265,-6.11984 39.70726,-16.41741 59.96185,-21.39899 3.01999,-0.74279 8.83388,-2.35887 12.91977,-3.59119 7.39427,-2.23018 13.71815,-3.57909 42.63526,-9.09391 21.63205,-4.12555 38.99471,-6.88978 54.58604,-8.69026 3.19765,-0.36923 8.8662,-1.27583 12.59678,-2.01458 7.26778,-1.43925 30.48135,-3.27789 34.23057,-2.71123 3.04717,0.46046 6.18974,2.91028 7.81166,6.08945 0.74681,1.46387 2.31914,7.88742 3.57549,14.60692 2.75815,14.75226 6.09027,29.26874 14.86171,64.74593 12.90471,52.19459 14.75003,61.38367 17.36461,86.47004 1.11488,10.69707 1.26896,31.7889 0.30338,41.5288 -5.10682,51.51236 -29.18834,88.38287 -65.25646,99.91235 -3.39115,1.08396 -8.769,2.4262 -11.95078,2.98276 -6.30399,1.10262 -20.85365,1.25907 -26.70649,0.28716 z m 20.08858,-12.90948 c 33.93959,-3.66921 57.62882,-29.11734 67.28252,-72.27817 3.02149,-13.50883 3.82842,-23.06634 3.46325,-41.02028 -0.55449,-27.26275 -3.4916,-44.47603 -16.53392,-96.89832 -10.19208,-40.96608 -16.39302,-68.5821 -17.24952,-76.82108 -0.32057,-3.08368 -0.77036,-4.19711 -2.32237,-5.7491 l -1.9248,-1.92485 -7.54332,0.41555 c -6.73179,0.37095 -14.51059,1.40524 -29.82993,3.96648 -5.55122,0.92821 -19.29597,3.182 -41.86054,6.86414 -8.89858,1.45215 -19.11139,3.5597 -23.57859,4.8658 -4.33433,1.26725 -11.07823,3.01031 -14.98646,3.87361 -10.99121,2.42761 -22.00605,5.8679 -28.7465,8.97844 -8.68981,4.01018 -32.87043,13.44414 -43.85399,17.10952 -6.07967,2.02891 -10.88271,4.10082 -13.88876,5.99134 -2.52735,1.58944 -6.19399,3.68567 -8.14811,4.65828 -11.47995,5.71378 -21.2829,14.33016 -28.5691,25.11091 -7.36524,10.89772 -9.54423,17.97867 -9.54423,31.01523 0,4.0777 -0.30337,8.21193 -0.67414,9.18707 -0.37077,0.97523 -2.65912,3.86281 -5.0852,6.41688 -5.7308,6.03304 -9.0241,12.55702 -11.45666,22.6954 -1.34399,5.60143 -1.83309,9.26964 -1.83631,13.77198 -0.004,5.58942 0.18309,6.53267 2.0966,10.57302 2.47923,5.23493 10.15441,13.53225 14.882,16.08835 3.958,2.14014 10.10078,3.86019 20.48439,5.73598 6.8106,1.2303 10.53454,1.51 19.70265,1.47962 13.18571,-0.0434 20.35564,-1.28956 30.76827,-5.34667 3.50685,-1.36637 8.64599,-3.29323 11.42032,-4.2818 4.28623,-1.52745 21.54333,-11.37758 34.07144,-19.44759 l 2.94033,-1.89396 -14.25207,0.22912 c -7.83864,0.12597 -18.31867,-0.10729 -23.28897,-0.5184 -4.97029,-0.41111 -12.52522,-1.00148 -16.78875,-1.31196 -14.3072,-1.04187 -21.10272,-3.32019 -26.11167,-8.75416 -3.32722,-3.60966 -5.55183,-10.45563 -5.03254,-15.48708 0.6859,-6.64571 6.46604,-16.28547 12.57869,-20.97808 4.03178,-3.09509 4.53678,-4.0986 6.03212,-11.98693 0.72817,-3.8413 2.0318,-8.86477 2.89699,-11.16338 2.22944,-5.92312 7.82707,-16.0498 10.51827,-19.02861 4.49849,-4.97926 13.35693,-10.32997 24.29627,-14.67555 2.67113,-1.06114 7.44839,-3.23096 10.61615,-4.8219 14.68467,-7.37508 35.02567,-15.05376 76.28704,-28.79829 33.64748,-11.20831 41.37912,-13.3113 51.37953,-13.97515 8.69446,-0.57716 11.74505,1.39129 10.93507,7.05591 -0.21571,1.50858 -0.49838,3.46966 -0.62815,4.3579 -2.64208,18.08354 -3.49388,74.46635 -1.29731,85.87219 0.11599,0.60218 0.40356,4.12888 0.63906,7.83705 0.23549,3.70808 1.69534,16.04424 3.2441,27.41365 1.54876,11.3694 2.97295,22.85185 3.16485,25.51655 0.1919,2.6647 0.53878,7.75187 0.77087,11.30481 0.23208,3.55294 0.50023,6.89593 0.59588,7.42887 0.44507,2.47949 -2.34623,15.7485 -3.97822,18.91142 -4.41592,8.55814 -11.72981,17.21348 -16.41836,19.42962 -2.76582,1.30722 -7.93953,2.298 -10.56935,2.02397 -1.09333,-0.11386 -3.97504,-0.40223 -6.40379,-0.64074 -10.40743,-1.02207 -20.44966,-6.70627 -33.8307,-19.14912 -10.67469,-9.92633 -15.95455,-16.52127 -21.64389,-27.03504 -2.42642,-4.48397 -11.89044,-18.28391 -12.75606,-18.60023 -1.4212,-0.51942 -2.87191,17.6798 -2.38382,29.90503 1.36608,34.21651 10.75719,59.423 28.47723,76.43491 9.28321,8.91222 17.44795,14.00796 28.23547,17.62207 9.04992,3.032 14.72576,3.58211 25.23674,2.44577 z m -1.0428,-78.48793 c 3.90336,-1.85228 8.00787,-8.85318 10.18307,-17.36883 3.77804,-14.79061 2.94958,-32.25412 -3.76514,-79.36637 -3.585,-25.1534 -4.37408,-40.65955 -2.91052,-57.19514 0.35847,-4.05005 0.50941,-7.50609 0.33542,-7.6801 -0.68969,-0.6897 -7.91595,4.32176 -12.74083,8.83581 -9.35302,8.75042 -17.05887,20.73775 -21.22411,33.01658 -0.7834,2.30941 -2.03556,4.86753 -2.78255,5.6848 -0.74701,0.81728 -4.27345,2.9975 -7.83653,4.84492 -11.68828,6.06038 -21.45138,17.46421 -26.91473,31.43765 -2.30345,5.89142 -4.33838,14.00928 -4.41164,17.59906 -0.0124,0.60743 1.17831,2.20625 2.64601,3.55293 1.4677,1.34669 4.28639,4.48337 6.26378,6.97042 1.97737,2.48707 3.77356,4.66727 3.99152,4.84492 0.21797,0.17765 3.27052,3.81133 6.78345,8.07486 18.51087,22.46607 28.82269,32.08343 38.79622,36.18345 4.57271,1.87972 10.31292,2.11843 13.58658,0.56504 z m -18.3566,-37.55597 c -3.6774,-6.35179 -3.87808,-6.77926 -6.5512,-13.95649 -1.34247,-3.60452 -5.10172,-12.72609 -8.3539,-20.27012 -6.00688,-13.93418 -6.57533,-16.31616 -4.11869,-17.2589 1.95138,-0.74885 3.29308,0.38547 5.52746,4.67312 2.81348,5.39885 8.10897,17.53668 11.82468,27.10347 3.84983,9.91219 6.68116,24.06934 4.81367,24.06934 -0.33964,0 -1.75354,-1.96219 -3.14202,-4.36042 z m -91.52383,-21.71441 c 13.82685,-1.90032 24.25258,-3.06886 27.60911,-3.09449 3.74924,-0.0283 4.34284,-0.52002 4.35744,-3.60684 0.0243,-5.12622 6.18738,-20.51105 11.29071,-28.18459 6.48223,-9.74696 12.99974,-15.63918 23.4009,-21.15583 l 5.62414,-2.98295 1.39209,-4.12292 c 4.29929,-12.73325 10.61017,-22.61859 21.23264,-33.25883 6.59288,-6.60393 8.6177,-8.22092 13.03652,-10.41083 2.87725,-1.42581 5.56029,-2.70406 5.96229,-2.84053 0.402,-0.13636 1.26975,-3.95435 1.92829,-8.48435 l 1.19739,-8.23635 -1.66875,8e-4 c -3.28465,0 -15.47068,3.36439 -29.40465,8.11412 -14.07764,4.79869 -14.19567,4.85451 -18.08768,8.54755 -3.39809,3.22429 -17.79836,14.77961 -21.88913,17.56453 -0.77445,0.52728 -6.49525,5.16791 -12.71289,10.3125 -11.83344,9.79138 -35.45434,33.01013 -40.25891,39.57368 -1.48464,2.0281 -5.65861,7.58955 -9.27548,12.35877 -4.39606,5.79664 -7.63733,10.89168 -9.7772,15.36919 -3.3422,6.99312 -6.0816,15.0374 -5.37564,15.78554 0.67874,0.71926 23.78161,-0.19855 31.41881,-1.24817 z m -37.40368,-3.64066 c 0.4463,-1.95411 1.68147,-5.58679 2.74482,-8.07253 1.06336,-2.48585 1.85079,-4.60217 1.74984,-4.7032 -0.10095,-0.10094 -4.65621,-1.31853 -10.1228,-2.70579 -5.46659,-1.38726 -10.55608,-2.71073 -11.30996,-2.94097 -1.14135,-0.34852 -2.14117,0.51629 -5.97539,5.16862 -2.5326,3.07299 -4.6047,5.80442 -4.6047,6.06977 0,0.98665 3.66524,3.87149 7.10587,5.59285 3.46741,1.73479 16.8545,5.50797 18.68278,5.26582 0.54865,-0.0727 1.24463,-1.55139 1.72954,-3.67457 z m 11.78495,-24.51204 c 1.83857,-2.82277 5.0846,-7.3241 7.21341,-10.00303 2.12881,-2.67883 3.87057,-5.10544 3.87057,-5.3925 0,-0.28696 -1.3808,-0.89045 -3.06845,-1.34113 -3.80254,-1.01532 -18.99513,-7.05531 -19.83186,-7.88439 -1.34509,-1.33276 -2.14748,-0.37438 -4.2232,5.04436 -2.38684,6.23087 -5.75037,13.26225 -8.20162,17.14535 -0.87422,1.38484 -1.43658,2.67076 -1.2497,2.85769 0.18687,0.18683 1.58866,0.58957 3.11508,0.8948 1.5264,0.30523 5.68223,1.2512 9.23517,2.10219 9.86243,2.362 9.27227,2.51582 13.1406,-3.42334 z m 19.73336,-25.06759 c 1.80387,-2.04294 5.44163,-5.96632 8.08388,-8.71863 2.64226,-2.75231 4.682,-5.1235 4.53274,-5.26935 -0.14926,-0.14585 -2.88762,-1.34486 -6.08526,-2.6646 -3.19765,-1.31973 -8.32227,-3.65751 -11.38804,-5.19516 l -5.57414,-2.79572 -5.3396,3.65316 c -2.93678,2.00913 -6.87593,5.05718 -8.75365,6.77329 -3.46827,3.16979 -7.57681,8.69401 -7.0727,9.50967 0.15226,0.24638 3.56087,1.40947 7.57469,2.58476 4.01381,1.17519 9.91409,2.94177 13.11174,3.92549 3.19764,0.98382 6.22265,1.81634 6.72223,1.85016 0.49958,0.0343 2.38423,-1.61013 4.18811,-3.65307 z m 28.00094,-27.75784 c 5.24583,-4.51919 9.53788,-8.48789 9.53788,-8.81936 0,-0.51648 -1.79098,-1.36253 -10.36389,-4.89609 -0.97132,-0.40031 -3.44591,0.32915 -9.36684,2.7611 -9.50065,3.90227 -20.75561,9.5354 -20.87926,10.45018 -0.0825,0.61107 19.0408,8.62546 20.73629,8.69037 0.43887,0.0172 5.08999,-3.667 10.33582,-8.1862 z m 24.74224,-20.11568 c 4.29158,-3.32513 7.68181,-6.16678 7.53384,-6.31474 -0.14799,-0.14807 -5.32462,1.50283 -11.50364,3.6685 -6.179,2.16579 -11.74328,4.09658 -12.36505,4.29069 -0.62176,0.19419 -1.13047,0.57542 -1.13047,0.84725 0,0.4966 8.31054,3.78146 9.19163,3.63328 0.25893,-0.0434 3.98209,-2.79985 8.27369,-6.12498 z"
         id="path4" />
      <path
         style="fill:#000000;stroke-width:1.03769"
         d="m 213.77461,619.73986 c -0.15219,-0.14205 -5.05836,-0.44475 -10.90258,-0.67272 -27.01328,-1.05377 -56.69152,-3.77114 -80.97036,-7.41382 -30.481795,-4.57326 -37.662932,-10.82094 -40.590138,-35.31395 -0.744245,-6.22743 -1.014354,-15.34232 -1.018629,-34.37505 -0.01265,-56.26369 3.411834,-93.02905 11.753047,-126.18088 5.484471,-21.79784 13.61228,-41.58757 19.49752,-47.47277 5.10823,-5.1083 4.50375,-4.99997 27.57344,-4.94029 11.32318,0.0291 25.21979,0.40469 30.8814,0.83418 5.66158,0.4295 14.926,1.10315 20.58759,1.49695 11.68172,0.81261 16.27757,1.84968 19.23905,4.34156 2.59191,2.18101 3.71341,4.35194 5.73177,11.0952 0.88401,2.95355 1.82841,5.58864 2.09864,5.85595 1.55986,1.54272 28.97493,-5.42894 50.96416,-12.96013 9.87412,-3.3819 14.13062,-5.12842 29.88521,-12.26237 7.63292,-3.45641 13.96427,-5.8245 16.99778,-6.35777 2.80964,-0.49394 5.91422,1.46292 5.91422,3.72797 0,1.7376 -2.4174,6.78945 -4.69919,9.82021 -0.96247,1.27841 -2.73106,4.11751 -3.93018,6.30909 -1.19912,2.19159 -2.84154,5.18011 -3.64984,6.64117 -2.19823,3.97358 -17.71212,26.21794 -23.10857,33.13399 -11.45003,14.67425 -27.36648,31.54186 -36.76831,38.96564 -2.97686,2.35057 -7.8332,5.71358 -10.79189,7.47339 -5.3648,3.19106 -5.37943,3.20736 -5.37467,5.97703 0.007,3.95212 2.36654,21.11869 4.35291,31.6664 4.99993,26.54959 9.43217,47.70677 12.66053,60.43455 5.65576,22.298 6.92894,29.37271 6.9995,38.89447 0.0596,8.04026 0.008,8.34772 -1.81314,10.9768 -3.17245,4.57783 -12.75552,8.19798 -26.18926,9.89367 -4.99942,0.631 -14.81235,0.89438 -15.33001,0.41153 z m 17.65442,-15.96265 c 2.64911,-0.5925 5.03204,-1.54116 5.53973,-2.20527 1.05747,-1.38334 0.74756,-8.92759 -0.85272,-20.75684 -0.56826,-4.20053 -1.17903,-8.98217 -1.35727,-10.62586 -0.17824,-1.64367 -1.06342,-7.91958 -1.96708,-13.94643 -0.90364,-6.02685 -2.27877,-15.73954 -3.0558,-21.58376 -2.30618,-17.34516 -2.36973,-17.76833 -4.54252,-30.25609 -1.2454,-7.15762 -2.19392,-15.66961 -4.09321,-36.73245 -0.96183,-10.66634 -1.01546,-10.5747 9.38566,-16.02596 9.9723,-5.22648 16.85984,-10.16045 24.23682,-17.36257 7.79902,-7.61409 21.13204,-23.2668 28.22719,-33.13804 3.07623,-4.27981 7.73286,-10.26246 10.34803,-13.29478 5.56643,-6.45427 12.18009,-15.26377 12.18009,-16.22415 0,-0.36879 0.29885,-0.67054 0.66411,-0.67054 0.36526,0 0.66412,-0.5782 0.66412,-1.28495 0,-1.14488 -0.74179,-0.93444 -6.80719,1.9308 -3.74395,1.76863 -9.17697,4.58043 -12.07339,6.2484 -2.89639,1.66786 -8.57459,4.41959 -12.61819,6.11485 -4.04361,1.69526 -8.99569,3.8995 -11.00466,4.89827 -11.41546,5.67559 -36.42898,11.97784 -47.53932,11.97784 -9.30556,0 -12.40389,-2.2033 -13.24103,-9.41602 -0.2609,-2.24813 -0.98939,-5.60265 -1.61884,-7.45449 -1.05739,-3.11077 -1.34193,-3.40287 -3.74062,-3.84067 -6.34154,-1.15743 -63.36319,-4.04259 -71.33217,-3.60926 -3.10474,0.16883 -7.13924,0.85755 -8.96555,1.53048 -3.25868,1.2006 -3.3856,1.35335 -6.80674,8.18802 -1.91738,3.83051 -3.6445,8.01059 -3.83803,9.28902 -0.19354,1.27842 -1.06836,4.86466 -1.94405,7.96939 -3.12614,11.08368 -6.454045,23.89127 -6.729992,25.90053 -0.0753,0.54789 -0.467939,2.49043 -0.872636,4.31675 -0.404697,1.82632 -1.017987,4.8939 -1.36288,6.81684 -0.344883,1.92293 -0.769386,3.72651 -0.943335,4.00793 -0.270627,0.43791 -0.943616,5.89974 -2.103089,17.06809 -0.299848,2.88828 -0.815607,10.59577 -1.577639,23.57612 -0.268033,4.5658 -0.382717,14.12907 -0.254844,21.25171 0.127874,7.12263 0.344594,20.27214 0.481588,29.2211 0.338274,22.09597 3.022672,46.29728 5.787759,52.17979 1.085167,2.30852 2.128949,3.36728 4.480218,4.54421 6.95691,3.48257 12.90329,4.67902 39.59182,7.9666 17.50388,2.15609 26.34543,2.99174 46.15605,4.3624 12.55136,0.86844 37.87868,0.32636 43.49961,-0.93101 z M 128.97088,583.10184 c -1.7528,-1.22768 -1.98141,-4.34291 -0.43238,-5.89195 1.33355,-1.33354 4.21735,-1.3381 6.11389,-0.0104 1.64572,1.15276 2.04605,4.77166 0.67906,6.1386 -1.12094,1.12102 -4.60737,0.99109 -6.36057,-0.2369 z m 30.0695,0.44526 c -8.76611,-0.79174 -12.35454,-2.69838 -11.30467,-6.0062 0.53302,-1.67949 2.88531,-2.47736 10.3085,-3.49677 8.01477,-1.10057 37.14773,-0.98819 39.90514,0.15389 3.24889,1.34577 3.37626,5.08277 0.22221,6.51975 -4.9654,2.26245 -27.42778,3.88652 -39.13118,2.82933 z m -32.54167,-26.42392 c -5.11593,-0.63777 -6.32308,-1.69298 -4.92503,-4.30523 1.33575,-2.49593 4.58219,-3.21629 14.49418,-3.21629 5.10387,0 9.41419,-0.22414 9.57848,-0.49809 0.1643,-0.27395 0.10723,-3.0318 -0.12683,-6.12855 l -0.42556,-5.63035 -10.68462,0.21127 c -9.257,0.18305 -10.83204,0.0644 -11.78805,-0.8922 -1.42662,-1.4266 -1.40368,-3.18745 0.0587,-4.5107 0.95629,-0.86532 5.04501,-1.23671 23.07801,-2.09621 25.62697,-1.22156 33.14808,-1.29814 34.90975,-0.3553 1.69223,0.90568 1.63608,3.4369 -0.11138,5.02061 -1.24106,1.12473 -2.81951,1.30197 -14.22545,1.59719 -7.05621,0.18264 -13.01612,0.51978 -13.2442,0.7491 -0.2281,0.22933 -0.17726,3.06842 0.11298,6.30911 l 0.5277,5.89205 9.12002,-0.24998 c 7.64546,-0.2096 9.39034,-0.0726 10.79188,0.84552 2.01719,1.32168 2.09541,2.33955 0.35026,4.55811 -1.14535,1.45607 -2.00885,1.73428 -6.47513,2.08625 -6.17985,0.48688 -38.19054,0.96578 -41.01578,0.61369 z m 33.86991,-35.99259 c -2.75803,-1.71301 -4.66072,-3.99622 -5.55503,-6.66597 -0.41697,-1.24479 -1.3504,-2.67814 -2.07427,-3.18516 -0.72388,-0.50701 -2.10498,-2.26795 -3.06912,-3.91308 -3.05825,-5.21851 -1.6057,-10.36447 4.05107,-14.35176 2.40797,-1.69723 2.80372,-2.27335 2.36408,-3.44106 -0.88573,-2.35272 0.3063,-4.39115 2.56778,-4.39115 1.92762,0 3.51635,1.5475 5.74052,5.59154 0.38563,0.70116 1.83065,1.6659 3.21119,2.14386 5.74085,1.98746 11.49107,8.27405 13.11215,14.33504 2.24826,8.40595 -3.97411,15.12327 -14.00363,15.11755 -3.0869,0 -4.93168,-0.36225 -6.34474,-1.23981 z m 9.64993,-6.07376 c 0.69363,-0.37128 1.60439,-1.82061 2.02391,-3.22086 0.65401,-2.18285 0.57151,-2.97815 -0.57858,-5.57805 -1.25083,-2.82769 -4.35891,-5.78539 -5.19791,-4.94631 -0.20369,0.20368 -0.65958,1.65768 -1.01311,3.23112 -0.35354,1.57355 -1.37299,3.81826 -2.26543,4.98835 -2.10989,2.76615 -2.05101,3.30252 0.53574,4.87969 2.38619,1.45493 4.57687,1.67274 6.49538,0.64606 z m -11.4306,-12.54027 c 0.19596,-1.99515 0.10974,-2.10048 -1.1622,-1.41976 -1.33779,0.71591 -1.83621,2.66124 -0.91731,3.58021 0.92364,0.92365 1.8735,-0.0634 2.07951,-2.16045 z m -32.52186,-24.2286 c -2.03224,-1.00739 -2.53641,-4.67757 -0.76837,-5.59353 0.66056,-0.34222 8.82173,-0.80305 18.13594,-1.02409 17.39456,-0.41278 25.91149,-1.41082 28.93271,-3.3904 1.97432,-1.29369 1.9997,-1.98614 0.22011,-6.00922 -1.76978,-4.00089 -1.03988,-6.30941 1.9949,-6.30941 1.52744,0 2.624,0.76269 5.01319,3.48661 3.91852,4.46764 4.84637,7.3226 3.4589,10.64328 -0.56672,1.35636 -1.98694,3.03128 -3.19144,3.76377 -2.86514,1.74238 -11.83745,3.78899 -20.48959,4.67382 -9.2018,0.94097 -31.24362,0.78158 -33.30635,-0.24083 z m 29.52957,-21.04761 c -6.00952,-2.97471 -8.25536,-7.37107 -6.8206,-13.35174 0.43271,-1.8038 1.49989,-4.12717 2.3715,-5.16298 1.93573,-2.30054 1.9456,-2.5501 0.17528,-4.43452 -2.22837,-2.37204 -1.28367,-4.538 2.57041,-5.89351 5.35136,-1.88216 5.17387,-1.63404 4.91255,-6.86666 -0.2238,-4.48112 -0.15312,-4.75517 1.41025,-5.46743 2.31828,-1.05625 3.99967,0.025 5.71551,3.67514 2.36195,5.02488 1.82657,9.27003 -1.63882,12.99447 l -1.55958,1.67628 3.2291,2.7815 c 5.69626,4.90658 8.1112,12.11015 5.65329,16.86325 -2.18676,4.22876 -10.55155,5.89248 -16.01889,3.1862 z m 8.70334,-7.65923 c 1.71246,-0.65705 1.20914,-2.73802 -1.34643,-5.56674 -2.39557,-2.65159 -2.39796,-2.65241 -4.29592,-1.53131 -1.04445,0.61701 -2.05673,1.53286 -2.24951,2.03521 -0.55601,1.44891 0.84618,3.41263 3.15993,4.4254 2.47084,1.08158 3.28791,1.19157 4.73193,0.63744 z M 128.46543,410.2389 c -1.97643,-0.36226 -3.627,-2.11749 -3.627,-3.85717 0,-4.26123 9.40756,-8.42897 23.16915,-10.26443 7.16352,-0.95539 22.35818,-0.45771 25.03672,0.82008 2.6154,1.2477 3.01389,4.5465 0.81392,6.73798 -1.30806,1.30311 -2.91269,1.70179 -10.83314,2.69175 -5.11369,0.6391 -13.48155,1.73219 -18.59524,2.429 -10.77547,1.46841 -14.15736,1.77401 -15.96441,1.44279 z m 55.84903,-8.21875 c -2.09415,-2.98977 -0.37415,-6.49339 3.18775,-6.49339 2.70782,0 3.7478,1.0219 3.7478,3.68252 0,3.93665 -4.78791,5.87702 -6.93555,2.81087 z"
         id="path3" />
      <path
         style="fill:#000000;stroke-width:0.952944"
         d="m 519.27675,782.61822 c -0.50316,-0.18076 -4.26691,-1.79772 -8.36393,-3.59326 -7.20502,-3.15758 -9.39277,-4.25557 -17.86111,-8.96387 -4.75135,-2.64175 -14.53661,-7.0213 -20.43112,-9.14418 -2.34806,-0.84564 -7.42535,-2.69455 -11.28286,-4.10852 -8.37081,-3.06849 -18.10795,-6.2658 -24.39538,-8.01046 -5.60879,-1.55625 -14.07973,-3.1085 -14.52644,-2.66186 -0.18081,0.18087 -1.24825,3.49759 -2.37205,7.37066 -1.12382,3.87304 -2.61864,7.91782 -3.32182,8.98844 -1.86807,2.84427 -5.21066,5.21881 -8.71852,6.19367 -5.85036,1.62592 -62.52652,4.91787 -76.36987,4.43577 -6.51951,-0.22699 -7.83105,-0.45847 -10.78374,-1.90303 -3.9441,-1.92971 -6.45009,-4.59024 -8.85226,-9.39823 -9.63941,-19.29332 -17.4039,-57.1297 -20.11338,-98.01256 -0.76086,-11.4805 -0.82468,-61.79455 -0.10366,-81.72453 2.08488,-57.62809 6.14877,-68.40924 28.37623,-75.27968 9.86212,-3.04828 48.54322,-8.00082 74.09357,-9.48656 9.22451,-0.53641 20.33966,-1.20196 24.70034,-1.47888 11.9414,-0.75845 19.19637,-0.28807 27.74244,1.79878 9.0148,2.2014 13.49089,4.29931 16.04011,7.51787 2.42121,3.05706 2.87939,6.53797 2.21847,16.85483 -0.53775,8.3944 -1.86837,15.1097 -7.24645,36.57087 -3.0425,12.14091 -6.41834,28.48582 -13.98659,67.7194 -0.67942,3.52209 -1.99869,12.40248 -2.93169,19.73426 l -1.69639,13.33045 1.51787,1.20319 c 0.83481,0.66171 3.98787,2.9688 7.00681,5.12674 16.17735,11.5637 36.93084,36.9876 56.77633,69.55324 8.57688,14.07434 8.44971,13.84962 12.72901,22.48226 2.16164,4.36067 4.76491,9.16351 5.78504,10.67298 1.02014,1.50946 1.85596,3.02951 1.8574,3.3779 0.002,0.3484 0.5515,1.71007 1.22237,3.02589 1.61119,3.16025 1.53874,4.92053 -0.27721,6.73646 -1.45608,1.4561 -4.12474,1.90083 -6.43152,1.07196 z m -6.70872,-15.45781 c 0,-1.40492 -11.27547,-18.3092 -14.82947,-22.23257 -0.60889,-0.67222 -1.84392,-2.38551 -2.74448,-3.80749 -0.90058,-1.42199 -3.55857,-5.63209 -5.90661,-9.35602 -4.2178,-6.6891 -18.39324,-26.0941 -24.24546,-33.19011 -8.54477,-10.36069 -18.87752,-19.06824 -29.87483,-25.17595 -3.79856,-2.10962 -6.12247,-3.84207 -7.09595,-5.29007 -1.38752,-2.0638 -1.4195,-2.34939 -0.7713,-6.88456 0.37193,-2.6023 1.25498,-10.76932 1.96234,-18.14892 0.70737,-7.3796 1.95643,-17.39696 2.77571,-22.26079 3.09633,-18.38221 6.11208,-37.43862 6.56307,-41.47215 0.16879,-1.50946 0.47278,-4.25395 0.67554,-6.09885 0.20277,-1.8449 1.16255,-8.1572 2.13283,-14.02735 1.61764,-9.78664 3.35004,-22.70628 4.96291,-37.01189 0.90694,-8.04438 0.5128,-8.69419 -6.18423,-10.19622 -7.73163,-1.73398 -32.96995,-1.66842 -56.04411,0.14551 -9.52607,0.74884 -17.48779,1.46525 -17.69276,1.59189 -0.20496,0.12665 -5.1704,0.8204 -11.03433,1.54158 -10.17544,1.2515 -17.34302,2.28393 -25.26124,3.63873 -6.94875,1.18899 -16.07416,4.90281 -17.81512,7.25028 -2.15334,2.90344 -3.82017,10.50937 -6.23835,28.46598 -2.14948,15.96135 -2.52442,20.03292 -2.5311,27.48617 -0.004,4.00247 -0.39171,10.98232 -0.86247,15.51071 -1.71197,16.46774 -2.21662,35.69826 -1.52849,58.24398 0.45242,14.82276 1.08164,25.25017 1.57241,26.05789 0.24768,0.40757 1.75111,11.43105 2.36124,17.31291 0.14313,1.37977 0.54216,3.25011 0.88674,4.15646 0.34458,0.90633 0.62652,2.47222 0.62652,3.47977 0,1.00755 0.69421,4.57061 1.54272,7.91792 0.84849,3.34731 1.41194,6.29753 1.25212,6.55617 -0.15982,0.25862 0.24448,2.50967 0.89844,5.00248 0.65396,2.49271 1.4644,6.40349 1.80099,8.69047 0.33658,2.28707 1.15919,5.35956 1.82804,6.82776 0.66883,1.4682 1.21607,2.93345 1.21607,3.25603 0,1.23672 3.54748,8.37228 4.64317,9.33951 0.6329,0.55872 2.93464,1.48489 5.11498,2.05817 3.47038,0.91244 6.10999,0.99649 21.18777,0.6744 9.47292,-0.2024 22.78366,-0.78379 29.57939,-1.2921 6.79575,-0.50829 16.00285,-1.15201 20.46023,-1.43046 5.64856,-0.35277 8.36651,-0.76979 8.96956,-1.37595 0.93805,-0.94286 3.10221,-8.88373 3.67377,-13.48007 0.42385,-3.4084 2.40828,-6.57265 4.89026,-7.79766 3.9912,-1.97003 14.19766,-1.4419 24.67756,1.27675 13.21365,3.42793 22.42563,6.99394 36.89802,14.2834 8.05046,4.05497 16.69315,8.72564 19.20595,10.37948 4.55246,2.99615 16.97495,9.95665 17.84453,9.99848 0.25157,0.0124 0.45742,-0.26405 0.45742,-0.6137 z M 362.23147,746.47103 c -2.91508,-1.40073 -4.20862,-2.51902 -6.93642,-5.99678 l -2.05624,-2.62156 -4.2102,0.41481 c -3.56469,0.35127 -4.39479,0.24777 -5.41428,-0.67487 -2.65313,-2.40103 -0.43018,-5.87127 4.72004,-7.36845 4.34565,-1.26332 6.9899,-0.561 11.97541,3.18065 3.68558,2.7661 5.58905,3.2237 8.61821,2.07208 2.02751,-0.77083 3.45474,-3.96254 2.68145,-5.99641 -0.30747,-0.80875 -1.10244,-2.16128 -1.76661,-3.00559 -1.54352,-1.9623 -1.54417,-4.5363 -0.002,-5.93245 2.57851,-2.33349 8.71331,0.17638 11.49083,4.70117 2.41705,3.93756 2.81255,10.58892 0.84792,14.25984 -1.25553,2.34598 -5.4423,5.57417 -8.91379,6.87303 -4.26777,1.59675 -7.8445,1.62744 -11.03483,0.0944 z m -31.55405,-4.94454 c -3.29929,-1.92229 -2.07789,-6.62698 1.72766,-6.6548 3.04441,-0.0219 4.45479,4.59911 1.94095,6.35987 -1.56647,1.09721 -2.20358,1.14838 -3.66861,0.29493 z m 12.90356,-27.96741 c -2.87739,-0.56252 -8.86359,-2.97833 -11.53879,-4.65646 -4.22296,-2.6492 -8.69766,-9.01067 -9.79863,-13.93034 -1.84324,-8.2364 3.78729,-16.56095 14.22873,-21.03664 7.15538,-3.06714 18.0839,-3.69104 26.59326,-1.51804 3.14224,0.80239 6.77921,2.05808 8.08216,2.79032 l 2.36899,1.33145 1.69331,-1.62229 c 2.5537,-2.44659 5.29076,-3.23076 7.11184,-2.03759 3.00916,1.97174 2.33609,5.35775 -1.73247,8.71554 l -2.09866,1.73207 0.8425,3.24355 c 1.52484,5.87041 -1.18788,13.87773 -6.08959,17.97501 -9.06815,7.5801 -20.00153,10.90235 -29.66265,9.01342 z m 14.99119,-10.06985 c 7.14243,-2.13689 13.7224,-8.16503 13.7224,-12.57145 0,-2.3026 -0.65403,-2.58075 -3.38482,-1.4398 -2.15444,0.90025 -2.39126,0.88672 -3.87656,-0.22118 -2.18673,-1.63097 -2.28254,-3.01043 -0.34924,-5.02839 l 1.65031,-1.72255 -2.77723,-1.26513 c -4.30933,-1.96316 -8.58796,-2.64413 -14.99592,-2.38675 -6.53398,0.26244 -10.40662,1.70311 -14.87487,5.53356 -2.03731,1.74646 -2.36234,2.40295 -2.66575,5.38357 -0.42249,4.15036 0.41612,6.00269 4.36606,9.64362 2.91028,2.68262 5.73524,4.18103 9.46321,5.01972 2.90765,0.654 10.0127,0.16466 13.72241,-0.94522 z m -12.50263,-36.32407 c -2.80266,-2.80261 -0.70942,-5.1742 5.61837,-6.36548 5.79313,-1.09065 7.1892,-1.79829 7.1892,-3.64434 0,-2.20331 -1.25829,-2.79432 -6.78737,-3.18836 -5.68362,-0.40501 -8.0277,-1.43495 -7.73476,-3.39849 0.37006,-2.48062 3.16177,-3.80235 7.9879,-3.78205 5.75047,0.0238 10.18945,1.16011 13.27862,3.39791 4.45009,3.22363 5.21172,7.6813 1.97054,11.5332 -2.01469,2.39438 -5.28017,4.02325 -10.99644,5.48516 -6.01432,1.53824 -8.96081,1.52776 -10.52606,-0.0372 z m -2.9205,-24.47391 c -3.29299,-0.9497 -6.60663,-4.76891 -7.46486,-8.60394 -2.45913,-10.9886 9.41503,-19.90863 14.14914,-10.62906 0.67454,1.32221 1.56694,4.07337 1.98313,6.11373 l 0.75672,3.70971 1.08763,-1.65983 c 1.59587,-2.43564 0.85316,-7.55143 -1.53206,-10.55283 -2.17163,-2.73265 -2.33939,-5.29008 -0.43454,-6.62428 3.53138,-2.47348 7.71664,0.0477 9.34714,5.63037 1.3291,4.55078 0.95882,11.06454 -0.82701,14.54822 -1.74258,3.39925 -5.80451,6.75714 -9.50224,7.85522 -3.40596,1.01146 -4.66998,1.04699 -7.56305,0.21269 z m 2.05268,-9.52716 c -0.80402,-4.67096 -1.07049,-5.64143 -1.54906,-5.64143 -0.558,0 -1.22172,2.14098 -1.2341,3.98102 -0.01,1.44115 1.599,3.94749 2.53366,3.94749 0.40662,0 0.49838,-0.84117 0.2495,-2.28708 z m 44.38449,7.13728 c -1.83399,-0.69384 -2.20029,-1.49833 -2.60464,-5.72044 l -0.35471,-3.7039 -5.7939,-0.30495 c -3.18665,-0.16771 -6.37913,-0.64038 -7.0944,-1.05032 -2.37673,-1.36234 -2.7444,-4.23413 -0.77087,-6.02129 1.07974,-0.97772 2.23889,-1.16182 7.31645,-1.16182 h 6.03343 l 0.002,-3.16788 c 0.002,-2.45611 0.32864,-3.54744 1.45523,-4.85715 1.2943,-1.5047 1.62338,-1.61163 3.01249,-0.97878 1.68496,0.76779 2.84366,3.77613 2.84966,7.39875 l 0.004,2.05427 7.77602,-0.31066 c 11.87504,-0.47437 13.80671,-1.31611 13.84717,-6.03414 0.0246,-2.88122 0.20267,-3.31405 1.64861,-4.00989 2.16862,-1.04367 4.60371,-0.0968 5.44844,2.11848 0.7436,1.95021 0.22345,6.39302 -1.03292,8.82256 -2.04046,3.94576 -10.59806,6.58799 -21.33719,6.58799 h -5.74026 v 4.17466 c 0,3.2201 -0.24404,4.38431 -1.0673,5.09129 -1.68637,1.44819 -2.20034,1.60162 -3.5969,1.07322 z m -66.46625,-2.07704 c -1.94434,-1.36186 -6.32489,-8.45625 -6.32489,-10.24321 0,-1.74818 1.41078,-3.50787 2.81234,-3.50787 0.49256,0 1.91486,0.52001 3.16069,1.15563 2.91235,1.48573 7.0571,8.12213 6.51543,10.43217 -0.67515,2.87923 -3.6505,3.92356 -6.16357,2.16328 z m 84.0733,-28.67478 c -8.64188,-2.69854 -11.73154,-10.82649 -6.21315,-16.34491 2.09046,-2.09047 2.24299,-2.45955 1.65746,-4.01074 -0.84657,-2.24285 -0.17226,-4.75081 1.53067,-5.69309 0.75077,-0.41539 3.14895,-1.06253 5.32929,-1.438 3.37376,-0.58101 3.9388,-0.85716 3.79342,-1.85432 -0.094,-0.64439 -0.33675,-2.20692 -0.53955,-3.47235 -0.27712,-1.72922 -0.0976,-2.60049 0.72276,-3.50684 3.22914,-3.5682 8.17553,1.26057 8.20766,8.01236 0.0167,3.51342 -1.44066,5.50812 -4.8453,6.63183 l -2.50701,0.82734 2.39677,2.48662 c 3.59035,3.72497 4.53776,6.00698 4.2345,10.19966 -0.29647,4.09861 -1.71949,6.08312 -5.66934,7.9061 -2.85499,1.31765 -4.52965,1.37063 -8.09818,0.25634 z m 4.78667,-7.55408 c 1.26808,-1.02681 1.3268,-1.30306 0.63312,-2.97776 -0.42053,-1.01527 -1.54554,-2.59411 -2.50003,-3.50855 l -1.7354,-1.66271 -1.00345,1.94049 c -1.11114,2.14869 -0.81215,4.92757 0.69205,6.43181 1.20393,1.20394 2.22298,1.14582 3.91371,-0.22328 z m -40.1578,-26.13013 c -2.02274,-0.39605 -3.45472,-2.81195 -2.60635,-4.39717 1.30061,-2.4302 2.82165,-2.72532 23.81486,-4.62092 10.78365,-0.97373 16.28757,-2.18558 16.87464,-3.71535 0.17642,-0.4598 -0.25483,-1.76724 -0.95833,-2.90553 -1.57344,-2.54588 -1.6219,-4.17075 -0.16376,-5.49039 1.89919,-1.71873 4.27891,-1.26141 6.64822,1.27771 5.04945,5.41129 4.95449,10.48335 -0.25386,13.55631 -3.84315,2.26754 -10.62956,3.59155 -25.09555,4.89603 -7.60275,0.68555 -14.50929,1.34204 -15.34789,1.45878 -0.83859,0.11673 -2.14898,0.0896 -2.91198,-0.0591 z m -3.57045,-20.94239 c -5.85643,-3.75212 -8.73551,-14.16867 -5.66774,-20.50584 3.23858,-6.69006 12.33573,-10.14096 19.16384,-7.26964 3.34321,1.40587 6.23856,4.32065 8.05075,8.10481 2.27077,4.74164 2.34977,4.77262 8.87451,3.48366 7.80973,-1.54271 9.60473,-1.11913 9.60473,2.26677 0,2.4385 -2.4536,3.80006 -9.21448,5.11323 -7.9133,1.53699 -10.49144,1.09502 -13.64472,-2.33929 -1.9431,-2.11631 -3.34061,-2.99349 -6.00177,-3.7671 -4.2061,-1.22272 -5.32549,-1.06195 -6.36845,0.91493 -1.11322,2.11001 -0.57249,5.52745 1.31392,8.30348 1.87264,2.75581 2.01562,4.53584 0.47629,5.92885 -1.4977,1.35537 -4.25944,1.25741 -6.58688,-0.23386 z m 46.12493,-13.39402 c -0.67088,-0.67087 -1.21978,-1.76866 -1.21978,-2.43954 0,-3.07039 4.83422,-4.84782 6.91915,-2.54397 1.4661,1.62 1.23931,3.49434 -0.5976,4.9393 -2.02067,1.5894 -3.54339,1.60266 -5.10177,0.0439 z"
         id="path2" />
      <path
         style="fill:#b3111a;fill-opacity:1;stroke:#b3111a;stroke-width:0.189483;stroke-opacity:1"
         d="m 183.0993,531.2156 c -0.25545,0.71995 -1.14062,1.76626 -1.76273,2.08364 -1.36668,0.69722 -3.2203,0.87141 -12.12825,1.13969 -7.74774,0.23334 -13.57786,0.55103 -14.15764,0.77147 -0.40761,0.15497 -0.43249,0.26576 -0.43147,1.92186 9.8e-4,1.59827 0.4022,7.09972 0.67614,9.27103 l 0.11124,0.88173 9.12729,-0.029 9.12729,-0.0291 0.89172,0.43921 c 1.19607,0.58911 2.04527,1.57419 2.04527,2.37253 0,0.64608 -0.6997,1.89908 -1.58311,2.83499 -0.96961,1.02723 -2.35387,1.34538 -7.13311,1.63941 -5.13876,0.31615 -18.36666,0.5818 -29.36986,0.58983 -9.58443,0.007 -10.45295,-0.0194 -12.08116,-0.36695 -2.76397,-0.59002 -3.46283,-1.20732 -3.20006,-2.82661 0.18572,-1.14446 1.03314,-2.14457 2.40435,-2.83756 1.89724,-0.95884 3.83947,-1.16976 12.59264,-1.3675 4.16863,-0.0942 7.93403,-0.22846 8.36757,-0.29841 0.70974,-0.11452 0.80019,-0.19084 0.90817,-0.76642 0.0659,-0.35158 0.0747,-1.25854 0.0195,-2.01545 -0.0552,-0.75692 -0.19017,-2.82576 -0.29991,-4.59743 -0.10973,-1.77166 -0.24294,-3.50005 -0.29601,-3.84085 l -0.0965,-0.61965 -10.36489,0.0512 c -10.04103,0.0496 -10.38849,0.0394 -11.12032,-0.32777 -1.48158,-0.74324 -2.09379,-2.31879 -1.4588,-3.75428 0.48159,-1.08872 0.96932,-1.39972 2.72059,-1.73479 4.44432,-0.85034 39.29537,-2.4981 49.32767,-2.33221 5.53871,0.0916 6.14792,0.20387 6.86183,1.26476 0.41706,0.61977 0.55674,1.7661 0.3025,2.48263 z"
         id="path5" />
      <path
         style="fill:#b3111a;fill-opacity:1;stroke:#b3111a;stroke-width:0.189483;stroke-opacity:1"
         d="m 182.1732,511.86489 c -0.73839,2.74534 -2.98583,5.4697 -5.67684,6.88149 -2.32559,1.22009 -4.32647,1.70267 -7.50516,1.81013 -4.93533,0.16685 -6.70554,-0.42519 -9.48765,-3.17309 -1.47082,-1.45272 -1.75632,-1.85137 -2.52041,-3.51932 -1.24985,-2.72828 -1.34996,-2.88709 -2.73881,-4.3443 -3.57158,-3.74739 -4.97321,-7.52652 -4.07314,-10.98214 0.65948,-2.5319 2.20908,-4.56052 5.23285,-6.85045 2.32093,-1.75766 2.53783,-2.06078 2.32733,-3.2524 -0.52891,-2.99407 0.31008,-4.4442 2.57125,-4.4442 1.67924,0 2.95369,1.08817 4.83182,4.12563 1.24829,2.01882 1.95104,2.63188 3.94624,3.44261 2.88674,1.17299 4.65057,2.31915 6.91688,4.49473 2.95463,2.83632 5.28005,6.59208 6.09811,9.84898 0.448,1.78363 0.48275,4.45571 0.0775,5.96233 z m -8.96885,-6.61369 c -1.10847,-2.62418 -3.68982,-5.48978 -4.94523,-5.48978 -0.5922,0 -0.68299,0.19791 -1.50281,3.27588 -0.52964,1.98852 -1.26021,3.54553 -2.54136,5.41622 -1.72292,2.51574 -1.46959,3.21185 1.75285,4.81649 1.45647,0.72526 1.71332,0.79176 3.03172,0.78494 2.42308,-0.0125 3.5675,-0.93831 4.51858,-3.65523 0.59569,-1.70169 0.50355,-3.21364 -0.31375,-5.14852 z m -13.08471,-5.95947 c -0.10064,-0.0622 -0.52583,0.0618 -0.94487,0.2756 -1.34678,0.68707 -1.9273,2.47368 -1.13219,3.48449 1.02744,1.30619 2.17935,-0.11233 2.23975,-2.75813 0.0112,-0.48888 -0.062,-0.93976 -0.16269,-1.00196 z"
         id="path6" />
      <path
         style="fill:#b3111a;fill-opacity:1;stroke:#b3111a;stroke-width:0.189483;stroke-opacity:1"
         d="m 201.34339,576.60618 c -0.29541,0.67821 -1.2755,1.5505 -2.15724,1.91997 -4.47074,1.87336 -23.75198,3.48591 -34.86498,2.91587 -8.12599,-0.41681 -12.4961,-1.4224 -14.15332,-3.25673 -1.15561,-1.27913 -1.1271,-2.62945 0.0798,-3.7775 0.89333,-0.84981 2.40274,-1.33865 6.07587,-1.96777 5.6321,-0.96463 10.90087,-1.24172 23.59063,-1.24064 13.42583,10e-4 18.42519,0.32289 19.98819,1.2864 1.48092,0.91291 2.08539,2.64121 1.44109,4.1204 z"
         id="path7" />
      <path
         style="fill:#b3111a;fill-opacity:1;stroke:#b3111a;stroke-width:0.189483;stroke-opacity:1"
         d="m 137.74234,580.10212 c -0.35845,0.84695 -0.95883,1.3045 -2.02472,1.54303 -1.30764,0.29264 -3.37175,-0.0187 -4.49728,-0.67827 -2.26525,-1.32753 -2.28294,-5.25969 -0.0289,-6.42109 2.11889,-1.09176 5.23546,-0.27629 6.20993,1.62487 0.47109,0.91907 0.66578,3.16397 0.34095,3.93146 z"
         id="path8" />
      <path
         style="fill:#b3111a;fill-opacity:1;stroke:#b3111a;stroke-width:0.189483;stroke-opacity:1"
         d="m 184.58023,468.43442 c -0.73257,1.97207 -2.25277,3.67029 -4.09767,4.57753 -3.03761,1.49375 -10.84348,3.25096 -18.19037,4.0949 -4.9389,0.56733 -9.93602,0.7179 -20.52021,0.6183 -13.30152,-0.12517 -13.99325,-0.21913 -15.00149,-2.03775 -0.92646,-1.67112 -0.50526,-3.8275 0.81666,-4.18103 1.20738,-0.32291 7.18102,-0.62429 22.19917,-1.12001 12.75283,-0.42095 19.94468,-1.26563 23.10858,-2.71411 1.27254,-0.58259 2.32008,-1.5173 2.47111,-2.20495 0.11929,-0.54309 0.0629,-0.72904 -1.63883,-5.40257 -0.74918,-2.05753 -0.6932,-3.4394 0.17449,-4.30709 0.50347,-0.50347 0.76697,-0.60648 1.72942,-0.6761 1.6215,-0.11728 2.46413,0.35062 4.53805,2.51998 2.02129,2.11431 3.21568,3.74163 4.04158,5.50653 0.78612,1.67989 0.93371,3.80751 0.36951,5.32637 z"
         id="path9" />
      <path
         style="fill:#b3111a;fill-opacity:1;stroke:#b3111a;stroke-width:0.189483;stroke-opacity:1"
         d="m 173.73968,451.30192 c -0.57398,2.43542 -2.39926,4.22839 -5.41027,5.31452 -4.1351,1.49161 -8.75358,1.04032 -12.50168,-1.22159 -4.22744,-2.55118 -6.15162,-6.18917 -5.58996,-10.56878 0.36802,-2.8696 1.26962,-5.07721 3.01087,-7.37221 1.29629,-1.70854 1.33609,-2.13764 0.31154,-3.35885 -1.36307,-1.62472 -1.47153,-1.82137 -1.55416,-2.81783 -0.0705,-0.85058 -0.0145,-1.058 0.42773,-1.58358 0.81151,-0.96442 1.45781,-1.33243 4.07418,-2.31984 4.18633,-1.57991 4.0322,-1.32262 3.95141,-6.59628 -0.067,-4.3711 -0.0308,-4.53406 1.13744,-5.13007 2.32141,-1.18429 3.95768,-0.28138 5.63606,3.11003 1.16883,2.36181 1.66415,4.44268 1.55247,6.52202 -0.14395,2.68028 -1.07012,4.6356 -3.35028,7.0731 l -1.16346,1.24375 1.9531,1.70027 c 4.23233,3.68444 6.13576,6.36157 7.24529,10.19033 0.50289,1.73537 0.62266,4.31749 0.26972,5.81501 z M 166.55814,445.99 c -0.49427,-1.08901 -1.78779,-2.73765 -3.20689,-4.08732 -1.0017,-0.95268 -1.23808,-1.09166 -1.68079,-0.98826 -0.85136,0.19884 -3.13709,1.87565 -3.52114,2.58309 -0.79341,1.46155 0.49677,3.28199 3.24229,4.57484 2.44474,1.15122 4.26343,1.15675 5.16099,0.0157 0.47445,-0.60317 0.47566,-1.06225 0.006,-2.09804 z"
         id="path10" />
      <path
         style="fill:#b3111a;fill-opacity:1;stroke:#b3111a;stroke-width:0.189483;stroke-opacity:1"
         d="m 176.57767,400.81638 c -0.30209,1.60953 -1.3484,2.77174 -3.07786,3.41882 -1.41,0.52754 -3.16828,0.83568 -9.31279,1.63204 -2.91803,0.3782 -9.78206,1.27605 -15.25338,1.99523 -15.29793,2.01084 -17.20035,2.17435 -18.9992,1.63298 -1.19381,-0.35929 -1.94086,-0.93417 -2.53797,-1.95305 -2.12201,-3.62095 2.84925,-7.41818 13.10491,-10.01 6.70477,-1.69444 11.09411,-2.1984 19.13805,-2.19734 9.96041,10e-4 14.78655,0.61468 16.03584,2.03801 0.81267,0.92589 1.14028,2.17594 0.9024,3.44331 z"
         id="path11" />
      <path
         style="fill:#b3111a;fill-opacity:1;stroke:#b3111a;stroke-width:0.189483;stroke-opacity:1"
         d="m 192.27336,400.23758 c -0.3698,0.96964 -1.25103,1.94767 -2.10386,2.33494 -0.93692,0.42546 -2.39955,0.46682 -3.13106,0.0885 -1.3389,-0.69237 -2.43025,-2.83125 -2.17592,-4.26447 0.19787,-1.11499 0.85725,-2.09228 1.7762,-2.63254 0.73396,-0.43151 1.06888,-0.50213 2.37058,-0.49986 1.76859,0.003 2.57133,0.33869 3.0571,1.27806 0.39943,0.77242 0.51752,2.88102 0.20696,3.69533 z"
         id="path12" />
      <path
         style="fill:#b3111a;fill-opacity:1;stroke:#b3111a;stroke-width:0.176007;stroke-opacity:1"
         d="m 380.57487,735.98762 c -0.54051,2.35914 -1.1859,3.44877 -3.1448,5.30953 -2.51972,2.39349 -5.82799,4.25849 -9.05326,5.10367 -1.33702,0.35037 -2.17236,0.45418 -3.74496,0.4654 -2.474,0.0177 -3.65242,-0.27302 -5.98425,-1.476 -2.50515,-1.29237 -3.90524,-2.5954 -6.86465,-6.38869 l -1.49347,-1.9143 -1.32116,0.0987 c -0.72666,0.0542 -2.46963,0.19453 -3.87329,0.31165 -2.87797,0.24014 -3.64292,0.12835 -4.59324,-0.67128 -0.61985,-0.52158 -1.20609,-1.65331 -1.20941,-2.33476 -0.004,-0.76517 0.79116,-2.18486 1.64327,-2.93493 1.75946,-1.54873 5.17513,-2.73931 7.85553,-2.73813 1.15155,5e-4 1.81586,0.10823 2.88478,0.46779 1.72077,0.57884 2.37482,0.95035 5.49933,3.12369 3.66941,2.55237 5.04539,3.07043 7.28054,2.74118 2.78353,-0.41002 4.63791,-2.49873 4.64843,-5.23579 0.005,-1.29162 -0.24123,-1.87627 -1.69428,-4.02353 -1.13064,-1.67081 -1.42916,-2.55686 -1.33892,-3.97407 0.30516,-4.79239 7.22399,-4.22335 11.66101,0.95908 1.03134,1.20458 2.09912,3.34672 2.58727,5.19044 0.47987,1.81251 0.62492,6.30814 0.25553,7.92034 z"
         id="path13" />
      <path
         style="fill:#b3111a;fill-opacity:1;stroke:#b3111a;stroke-width:0.176007;stroke-opacity:1"
         d="m 331.86475,739.39841 c -0.38032,0.76832 -1.52691,1.67724 -2.39153,1.89578 -1.14982,0.29063 -2.89004,-0.68355 -3.62137,-2.02722 -1.30035,-2.38917 0.34949,-5.12871 3.0875,-5.12677 0.94133,6.6e-4 1.87827,0.40595 2.38965,1.03366 0.94926,1.16522 1.17377,2.93557 0.53575,4.22455 z"
         id="path14" />
      <path
         style="fill:#b3111a;fill-opacity:1;stroke:#b3111a;stroke-width:0.176007;stroke-opacity:1"
         d="m 381.5394,675.08908 c -0.37559,1.53601 -1.69417,3.22629 -3.99101,5.11607 -0.90864,0.74762 -1.65208,1.39138 -1.65208,1.4306 0,0.0392 0.25639,0.99794 0.56976,2.13054 0.53667,1.93968 0.56905,2.22274 0.5579,4.87535 -0.0104,2.47201 -0.0684,3.02273 -0.47461,4.50694 -1.34621,4.91861 -3.66988,8.33149 -7.77156,11.41437 -7.54097,5.66792 -16.01973,8.56862 -24.03478,8.22259 -1.30686,-0.0565 -3.04933,-0.23155 -3.87216,-0.3892 -3.07043,-0.58821 -8.82471,-2.82876 -11.80523,-4.5966 -4.79841,-2.8461 -9.58995,-9.86735 -10.49453,-15.37808 -1.31932,-8.03737 4.72619,-16.29239 14.99545,-20.47595 6.38065,-2.5994 15.69046,-3.41287 23.51012,-2.05428 4.12703,0.71703 9.07483,2.29969 11.92994,3.81604 l 1.82267,0.96803 0.46542,-0.40904 c 0.256,-0.22497 0.90105,-0.81154 1.43348,-1.30349 1.27034,-1.17378 2.32029,-1.8241 3.57983,-2.21727 1.83579,-0.57307 2.9683,-0.33321 4.18862,0.88711 1.06737,1.06736 1.37643,2.09178 1.04277,3.45627 z m -12.33137,12.40852 c -0.49304,-0.49305 -1.00843,-0.44362 -2.86675,0.27496 -0.89179,0.34484 -1.91056,0.63129 -2.26395,0.63654 -0.75125,0.0111 -1.84635,-0.67322 -2.84369,-1.77715 -0.52369,-0.57965 -0.64997,-0.85782 -0.64997,-1.4317 0,-0.95799 0.36019,-1.59617 1.77942,-3.15268 l 1.19797,-1.31385 -1.25789,-0.58263 c -5.34513,-2.47582 -8.4047,-3.12623 -14.65603,-3.11558 -5.84163,0.01 -8.88497,0.57013 -12.32052,2.26781 -3.29824,1.62983 -6.78985,4.61054 -7.26722,6.20386 -0.37453,1.25005 -0.61317,3.59936 -0.51898,5.10906 0.1582,2.5358 1.20199,4.23783 4.4704,7.2895 2.54587,2.37705 5.14314,3.89492 8.28202,4.84007 3.473,1.04577 11.20884,0.67211 15.80265,-0.7633 5.5985,-1.74934 11.38641,-6.37415 13.05616,-10.4325 0.54752,-1.33073 0.57813,-3.53067 0.0564,-4.05241 z"
         id="path15" />
      <path
         style="fill:#b3111a;fill-opacity:1;stroke:#b3111a;stroke-width:0.176007;stroke-opacity:1"
         d="m 366.40071,656.84639 c -1.37252,3.72319 -4.90649,6.13821 -11.72588,8.01315 -5.31363,1.46094 -8.81381,1.80691 -10.50254,1.03811 -1.36069,-0.61947 -2.4196,-1.95761 -2.42074,-3.05905 -0.002,-1.90992 2.3405,-3.2093 7.74366,-4.29545 5.31649,-1.06871 6.69123,-1.89741 6.46578,-3.89755 -0.22341,-1.9821 -1.27867,-2.43011 -6.9938,-2.96926 -3.50161,-0.33032 -5.05537,-0.63695 -6.29102,-1.2415 -1.44878,-0.70882 -1.79519,-1.7215 -1.08836,-3.18164 1.02206,-2.11129 4.26512,-2.97885 10.00785,-2.67722 3.98622,0.20936 7.71487,1.17651 10.14174,2.63057 1.77204,1.06173 3.50925,2.83597 4.2566,4.34735 0.58752,1.18813 0.6671,1.50789 0.70796,2.84449 0.0352,1.15012 -0.0359,1.72845 -0.30125,2.448 z"
         id="path16" />
      <path
         style="fill:#b3111a;fill-opacity:1;stroke:#b3111a;stroke-width:0.176007;stroke-opacity:1"
         d="m 358.80059,626.15904 c -0.44984,4.70496 -2.19146,7.97776 -5.7913,10.88285 -2.45021,1.97735 -5.85632,3.40692 -8.90478,3.73743 -2.19547,0.23803 -5.22144,-0.7062 -7.20463,-2.24814 -1.9698,-1.53154 -3.88211,-4.50829 -4.49942,-7.00392 -0.3481,-1.40734 -0.30701,-4.91701 0.0741,-6.33626 0.42407,-1.57883 1.51648,-3.76234 2.49027,-4.97755 0.99432,-1.24082 2.57991,-2.43537 3.93031,-2.96098 1.39665,-0.54364 3.32796,-0.54028 4.47782,0.008 2.72458,1.29861 4.145,4.0418 5.60595,10.82651 0.29084,1.35064 0.55397,2.4809 0.58476,2.51169 0.0308,0.0308 0.25475,-0.24443 0.49771,-0.61158 1.55013,-2.3424 1.81734,-4.1369 1.09735,-7.36936 -0.33916,-1.5227 -0.96931,-2.8572 -2.12054,-4.49081 -1.15299,-1.6361 -1.65515,-2.82735 -1.65515,-3.92656 0,-1.46621 0.53814,-2.2791 2.02409,-3.05754 0.70485,-0.36924 1.12531,-0.46118 2.11209,-0.46183 1.62271,-9.5e-4 2.62998,0.46409 3.96972,1.83326 1.83627,1.87661 2.95685,4.81272 3.32683,8.71683 0.20431,2.15602 0.20278,2.64755 -0.0152,4.9282 z m -17.15458,2.03834 c -0.46499,-2.46864 -0.78692,-3.35839 -1.21517,-3.35839 -0.53069,0 -1.16264,2.01923 -1.19718,3.82526 -0.0231,1.20212 0.57714,2.55929 1.59678,3.61105 0.70999,0.73235 0.9874,0.80937 1.2678,0.35201 0.22987,-0.37494 0.13324,-1.32152 -0.45223,-4.42993 z"
         id="path17" />
      <path
         style="fill:#b3111a;fill-opacity:1;stroke:#b3111a;stroke-width:0.176007;stroke-opacity:1"
         d="m 325.62875,634.11053 c -0.79175,2.17756 -3.57926,3.07493 -5.62474,1.81075 -2.1673,-1.33947 -6.76631,-8.61267 -6.76631,-10.70074 0,-1.67286 1.34149,-3.37368 2.66092,-3.37368 0.96943,0 3.21002,0.92582 4.32804,1.78836 2.33619,1.80236 5.27839,6.52638 5.57303,8.94809 0.0605,0.49751 -0.003,1.06541 -0.17094,1.52722 z"
         id="path18" />
      <path
         style="fill:#b3111a;fill-opacity:1;stroke:#b3111a;stroke-width:0.176007;stroke-opacity:1"
         d="m 420.65242,616.65465 c -0.3057,2.21049 -1.29341,4.48113 -2.38825,5.49032 -1.70776,1.57416 -4.74045,2.94902 -8.48645,3.8473 -3.7667,0.90324 -8.1094,1.30627 -14.1052,1.30908 l -3.72079,0.002 -0.0765,3.82817 c -0.0876,4.38763 -0.21518,4.9142 -1.43014,5.90464 -1.42204,1.15924 -2.09246,1.26833 -3.56918,0.58074 -1.55565,-0.72436 -1.86496,-1.54104 -2.33448,-6.16369 -0.17283,-1.70166 -0.34722,-3.12605 -0.38753,-3.16531 -0.0402,-0.0393 -1.69694,-0.1603 -3.68142,-0.26899 -4.03435,-0.22096 -7.38943,-0.59678 -8.71318,-0.97597 -1.48632,-0.42577 -2.7273,-2.02914 -2.7273,-3.52374 0,-1.4769 1.22375,-3.07013 2.72505,-3.54778 0.70453,-0.22415 2.02798,-0.29844 6.54484,-0.36737 l 5.66173,-0.0865 0.0585,-2.92742 c 0.0556,-2.7806 0.0828,-2.97708 0.54466,-3.91739 0.57049,-1.16165 2.03756,-2.61818 2.63714,-2.61818 0.78328,0 1.95786,0.75751 2.55121,1.64537 0.95183,1.42425 1.30846,2.85973 1.40586,5.65892 0.0472,1.35526 0.13664,2.51626 0.19885,2.57998 0.11001,0.11272 9.96464,-0.25021 12.78562,-0.47088 4.14456,-0.32421 6.62525,-0.94071 7.7872,-1.9353 1.00207,-0.85772 1.28222,-1.70458 1.44356,-4.36357 0.15782,-2.6009 0.31554,-2.94942 1.63418,-3.61112 2.15616,-1.08198 4.70591,-0.0595 5.51664,2.21231 0.22348,0.62626 0.3003,3.61946 0.12535,4.88456 z"
         id="path19" />
      <path
         style="fill:#b3111a;fill-opacity:1;stroke:#b3111a;stroke-width:0.176007;stroke-opacity:1"
         d="m 419.70834,579.08454 c -0.31879,2.9123 -1.87674,4.44299 -5.82342,5.72153 l -1.52506,0.49404 1.9245,2.05353 c 4.04474,4.31588 4.81361,5.88143 4.79533,9.7642 -0.014,2.9734 -0.53292,4.78192 -1.85371,6.46048 -0.70023,0.8899 -2.66043,2.15941 -4.50759,2.9193 -2.65708,1.09309 -5.30548,0.95949 -8.83691,-0.44576 -5.02073,-1.99789 -8.29841,-6.40071 -7.82293,-10.50831 0.26431,-2.28335 1.05426,-3.77525 3.2853,-6.20459 0.75017,-0.81687 1.36534,-1.65445 1.4182,-1.93096 0.0513,-0.26858 -0.0565,-0.96585 -0.23941,-1.54951 -0.65267,-2.08134 -0.36596,-3.91555 0.80192,-5.13009 0.83586,-0.86924 1.69955,-1.16886 5.98906,-2.07756 3.20966,-0.67994 3.69921,-0.83983 3.92347,-1.2814 0.10391,-0.20459 0.042,-1.09412 -0.17518,-2.51654 -0.43794,-2.86846 -0.37114,-4.1521 0.25911,-4.97838 0.72412,-0.94938 1.63214,-1.43423 2.67469,-1.42814 3.40485,0.0199 6.28736,5.38774 5.71263,10.63816 z m -8.97964,16.97204 c -0.46284,-1.23707 -2.1582,-3.50496 -3.43648,-4.59703 -1.11097,-0.94914 -0.99175,-1.00619 -1.93557,0.9263 -1.204,2.46514 -0.97806,4.9401 0.6002,6.57458 1.0037,1.03947 1.54117,1.20697 2.58887,0.80685 0.97087,-0.37078 2.55207,-1.82295 2.55207,-2.3438 0,-0.20925 -0.1661,-0.82436 -0.36909,-1.3669 z"
         id="path20" />
      <path
         style="fill:#b3111a;fill-opacity:1;stroke:#b3111a;stroke-width:0.176007;stroke-opacity:1"
         d="m 417.00269,561.426 c -0.79512,2.54421 -3.10059,4.47117 -6.96096,5.81809 -4.28982,1.49678 -10.20718,2.42527 -23.23297,3.64548 -3.63014,0.34005 -8.75225,0.82642 -11.38244,1.08079 -5.38103,0.52042 -6.2919,0.48691 -7.49445,-0.27573 -0.83129,-0.5272 -1.71595,-1.96554 -1.71595,-2.78994 0,-0.65806 0.49946,-1.55333 1.23964,-2.22206 1.43446,-1.29594 4.26342,-1.76402 19.23107,-3.18204 13.4369,-1.27299 17.55939,-1.92598 20.01509,-3.17038 1.54925,-0.78507 1.56144,-1.42804 0.0806,-4.25153 -1.18169,-2.25315 -1.33282,-3.09072 -0.76445,-4.23666 0.28149,-0.56756 0.69199,-1.02277 1.27161,-1.41013 0.73105,-0.48856 1.01185,-0.57203 1.92452,-0.57203 1.3973,0 2.30981,0.44804 3.82642,1.87872 3.20635,3.02471 4.81519,6.95821 3.96225,9.68742 z"
         id="path21" />
      <path
         style="fill:#b3111a;fill-opacity:1;stroke:#b3111a;stroke-width:0.176007;stroke-opacity:1"
         d="m 405.92534,537.97936 c -0.58952,1.35073 -2.66385,2.48245 -6.09203,3.32374 -5.3242,1.30659 -10.05293,1.80686 -12.0978,1.2799 -1.81268,-0.46712 -2.74995,-1.06789 -4.97609,-3.18954 -2.3445,-2.23445 -3.51118,-2.93411 -6.15908,-3.69359 -4.00414,-1.14851 -5.30427,-0.88346 -6.3807,1.30082 -0.32992,0.66943 -0.39349,1.08023 -0.38298,2.47475 0.0155,2.0724 0.4636,3.44488 1.89658,5.81049 1.17043,1.93217 1.62168,3.20048 1.45495,4.08928 -0.39917,2.12777 -2.81665,3.23522 -5.48531,2.51286 -4.50642,-1.21984 -8.33233,-7.03764 -9.08613,-13.81666 -0.2582,-2.32205 -0.0466,-4.55514 0.61967,-6.53996 1.51892,-4.52478 5.72419,-8.07746 11.1619,-9.42973 1.83694,-0.45681 5.37912,-0.41305 7.13337,0.0881 4.44371,1.26958 7.53497,4.13663 10.20855,9.46814 1.50213,2.99545 2.16313,3.59325 3.97313,3.59325 0.47725,0 2.63808,-0.33057 4.80185,-0.73461 3.11029,-0.58077 4.36433,-0.73741 5.98859,-0.74803 1.81303,-0.0119 2.11295,0.0294 2.55211,0.35111 1.01989,0.74709 1.43111,2.57269 0.86942,3.85965 z"
         id="path22" />
      <path
         style="fill:#fffdf8;fill-opacity:1;stroke:#fffdf8;stroke-width:0.176007;stroke-opacity:1"
         d="m 418.87145,535.70109 c -0.65731,1.40677 -2.61764,2.70737 -4.09134,2.71443 -2.19887,0.0105 -4.11576,-2.80724 -3.26399,-4.79799 0.81387,-1.90212 3.94567,-2.92862 5.86632,-1.92276 1.417,0.74207 2.12462,2.64602 1.48901,4.00632 z"
         id="path23" />
    </g>
  </g>
</svg>
