<?xml version="1.0" encoding="UTF-8" standalone="no"?>
<!-- Created with Inkscape (http://www.inkscape.org/) -->

<svg
   version="1.1"
   id="svg1"
   width="1124.1017"
   height="793.15076"
   viewBox="0 0 1124.1017 793.15077"
   sodipodi:docname="tarjeta3_clases_grupales.svg"
   inkscape:export-filename="tarjeta 3_clasesgrupales.svg"
   inkscape:export-xdpi="300"
   inkscape:export-ydpi="300"
   inkscape:version="1.3.2 (091e20e, 2023-11-25, custom)"
   xmlns:inkscape="http://www.inkscape.org/namespaces/inkscape"
   xmlns:sodipodi="http://sodipodi.sourceforge.net/DTD/sodipodi-0.dtd"
   xmlns="http://www.w3.org/2000/svg"
   xmlns:svg="http://www.w3.org/2000/svg">
  <defs
     id="defs1" />
  <sodipodi:namedview
     id="namedview1"
     pagecolor="#ffffff"
     bordercolor="#999999"
     borderopacity="1"
     inkscape:showpageshadow="2"
     inkscape:pageopacity="0"
     inkscape:pagecheckerboard="0"
     inkscape:deskcolor="#d1d1d1"
     showguides="false"
     inkscape:zoom="0.37229729"
     inkscape:cx="-79.237752"
     inkscape:cy="726.5699"
     inkscape:window-width="1920"
     inkscape:window-height="1051"
     inkscape:window-x="-9"
     inkscape:window-y="-9"
     inkscape:window-maximized="1"
     inkscape:current-layer="g1">
    <inkscape:page
       x="0"
       y="0"
       width="1124.1017"
       height="793.15076"
       id="page2"
       margin="0"
       bleed="0" />
  </sodipodi:namedview>
  <g
     inkscape:groupmode="layer"
     inkscape:label="Image"
     id="g1"
     transform="translate(-0.72640228,0.26414603)">
    <g
       id="g2"
       transform="rotate(90,561.14934,564.47273)">
      <rect
         style="fill:#fffdf8;fill-opacity:1;stroke:#fffdf8;stroke-opacity:1"
         id="rect33"
         width="792.15076"
         height="1123.1017"
         x="1.2264023"
         y="0.23585398"
         ry="0" />
      <path
         style="fill:#000000;stroke-width:1.0434"
         d="m 519.16899,750.57065 c -8.42504,-1.98647 -14.48127,-4.32837 -22.66928,-8.76584 -13.47269,-7.30154 -19.52857,-13.81153 -23.12573,-24.85994 -0.62823,-1.92956 -1.22139,-3.6254 -1.31813,-3.76859 -0.0967,-0.14307 -1.82884,1.36639 -3.84913,3.35439 -7.78248,7.65819 -23.38504,14.09659 -34.16106,14.09659 -12.54364,0 -26.79603,-7.26373 -34.96417,-17.81945 -5.53536,-7.15333 -8.20595,-16.32623 -9.00961,-30.94599 -0.54593,-9.93135 0.82345,-14.86744 7.09309,-25.56775 1.56849,-2.67694 3.63595,-5.47866 4.59434,-6.22615 2.26983,-1.77015 10.51604,-6.33215 13.79279,-7.63034 7.57634,-3.00191 21.39998,-3.88873 30.0094,-1.9254 9.03246,2.05982 15.61742,5.82323 23.56299,13.46663 l 4.6114,4.43603 6.8282,-7.60009 c 7.29043,-8.11449 10.62718,-10.4701 22.40965,-15.82016 7.49642,-3.40391 8.7474,-3.70762 23.59169,-5.72707 16.8806,-2.29661 25.50339,-2.33061 33.72968,-0.13299 9.41396,2.51479 12.45735,5.87213 15.04016,16.59176 2.46199,10.21793 2.94058,17.41852 2.89151,43.50297 -0.053,28.10261 -0.48859,32.44633 -4.34863,43.35244 -1.2527,3.53934 -2.27762,6.7468 -2.27762,7.12756 0,1.29435 -4.00127,5.73027 -6.37473,7.06705 -7.77159,4.37737 -14.51954,5.62292 -29.8507,5.51045 -7.08485,-0.0527 -10.83138,-0.44885 -16.20611,-1.71611 z"
         id="path1" />
      <path
         style="fill:#000000;stroke-width:1.24376"
         d="m 616.80911,347.51046 c -11.83571,-3.07796 -17.28353,-5.12632 -26.53645,-9.9782 -15.75924,-8.26347 -24.98899,-16.77759 -29.42855,-27.14693 -1.40637,-3.28469 -2.9473,-7.04116 -3.42431,-8.34764 l -0.86729,-2.37549 -4.05733,4.55169 c -5.13829,5.7642 -11.33695,9.92711 -19.45525,13.0657 -10.04362,3.88296 -12.74025,4.46895 -20.01803,4.35002 -8.89716,-0.14518 -15.0441,-1.84162 -23.86348,-6.58595 -9.6249,-5.17743 -18.84521,-14.97947 -22.98149,-24.43113 -3.57632,-8.1721 -5.27066,-19.69411 -4.9213,-33.46616 l 0.25144,-9.91208 4.16664,-9.00836 c 4.87299,-10.53559 6.94872,-13.0751 14.05992,-17.20063 10.11658,-5.86928 16.11485,-7.57485 28.18854,-8.01504 11.99744,-0.4374 17.56677,0.40671 24.79657,3.75858 6.28659,2.91469 14.38109,8.78019 19.19872,13.91213 l 4.04728,4.31124 2.39206,-3.33055 c 4.7513,-6.61538 11.45971,-13.91346 15.53358,-16.89887 5.14875,-3.77319 19.27326,-10.73174 25.00704,-12.31998 2.35149,-0.65136 6.1504,-1.42893 8.44206,-1.72794 2.29165,-0.29916 9.28024,-1.3147 15.5302,-2.25709 15.56504,-2.34687 29.73616,-1.34243 39.1754,2.77682 3.82648,1.6698 8.53832,8.27694 11.06844,15.52039 2.62606,7.51802 5.6886,23.20396 6.90835,35.38334 0.43769,4.37016 1.1271,11.08916 1.53206,14.93097 0.40495,3.84191 0.94969,15.32146 1.21054,25.51007 0.50086,19.56408 0.46998,19.88715 -3.38318,35.39994 -2.0402,8.21393 -3.3296,10.66706 -7.08109,13.47171 -6.38988,4.77727 -12.38527,6.70961 -23.76814,7.66061 -16.00096,1.33694 -21.48971,1.05987 -31.72295,-1.60117 z"
         id="path5" />
      <path
         style="fill:#000000;stroke-width:1.14007"
         d="m 322.07018,363.89328 c -11.891,-1.36658 -19.35985,-3.28803 -28.86229,-7.4253 -6.60737,-2.8767 -7.82169,-3.72195 -11.9637,-8.32652 -2.53545,-2.81872 -6.26012,-7.84004 -8.27705,-11.15863 -2.01693,-3.31849 -4.00479,-6.28717 -4.41748,-6.59695 -1.98849,-1.49263 -4.85802,-0.37832 -11.05533,4.29322 -5.95822,4.49124 -6.98485,4.98359 -12.88997,6.18176 -7.1626,1.4532 -11.18712,1.19109 -19.51167,-1.27076 -6.33866,-1.87452 -9.06667,-3.35526 -13.81401,-7.49828 -5.96764,-5.20808 -9.22272,-12.36039 -11.17904,-24.56361 -0.71017,-4.42992 -0.63308,-5.78319 0.65497,-11.49705 1.66975,-7.40688 4.33592,-12.71306 9.6608,-19.22664 6.37224,-7.79488 19.74008,-13.75466 28.34669,-12.63784 6.7526,0.87615 16.00956,5.6506 22.41921,11.56295 4.39412,4.05317 5.8413,3.60178 9.54945,-2.97815 3.71644,-6.59455 9.1093,-13.14792 12.86048,-15.62798 5.21597,-3.44833 15.98589,-7.58703 23.67121,-9.09654 4.53359,-0.89041 10.90282,-1.27386 22.10767,-1.33113 14.90467,-0.0754 15.84216,0 17.67697,1.51047 1.06566,0.87497 2.1598,2.59996 2.4314,3.83335 0.84711,3.84677 1.96553,33.20842 2.40711,63.19274 0.34397,23.35685 0.22494,30.45993 -0.63445,37.8645 -0.6237,5.37364 -1.45754,9.5556 -2.03171,10.18941 -1.45685,1.60845 -15.67038,1.92626 -27.14926,0.60698 z"
         id="path4" />
      <path
         style="fill:#000000;stroke-width:1.12865"
         d="m 585.16017,562.1108 c -0.15754,-0.16781 -3.44171,-1.03614 -7.29815,-1.92961 -8.89785,-2.06161 -14.87283,-4.31058 -22.98093,-8.65012 -15.82121,-8.46773 -24.1433,-17.53496 -27.45282,-29.91101 -0.47443,-1.77415 -0.96627,-3.22572 -1.09297,-3.22572 -0.1267,0 -2.08313,2.01406 -4.34764,4.47568 -7.69375,8.36349 -23.48128,15.2581 -34.93821,15.2581 -7.5198,0 -13.34139,-1.57277 -21.10645,-5.70239 -9.49401,-5.0492 -16.92296,-12.84901 -21.06587,-22.11759 -4.2514,-9.51123 -5.98737,-29.74213 -3.35343,-39.08093 1.41878,-5.03044 6.99392,-16.13614 9.69259,-19.30767 2.04619,-2.40468 14.28541,-9.0519 19.53893,-10.61186 6.46049,-1.91824 19.56,-2.29666 26.51244,-0.76575 9.3174,2.05152 18.74326,7.66758 26.21572,15.61944 l 3.37937,3.5962 4.8405,-6.34625 c 5.85161,-7.67196 11.19853,-12.23692 19.46124,-16.61526 8.35882,-4.4293 30.61183,-10.29862 37.23494,-11.2374 3.02482,-0.42871 -3.87307,0.58824 0.45109,-0.0521 14.318,-2.12021 27.38971,0.56405 33.96426,4.35475 8.04929,4.64074 12.23423,18.95282 14.6801,50.20403 0.97722,12.48635 1.29468,38.33332 0.56922,46.346 -0.56849,6.27912 -4.89081,22.23464 -6.78675,25.05288 -3.70805,5.51181 -12.15941,12.11292 -23.76853,13.15368 -8.69825,0.77987 -21.8024,-1.92525 -22.34865,-2.50706 z"
         id="path3"
         sodipodi:nodetypes="sssssssssssssscsssccsssss" />
      <path
         style="fill:#000000;stroke-width:1.20786"
         d="m 110.43348,792.8502 -2.03703,-1.98646 V 603.05809 415.25258 l 2.03703,-1.98647 2.03705,-1.98646 h 117.2595 c 82.60812,0 117.69266,0.26286 118.72527,0.88945 3.69471,2.2416 3.52091,-7.1809 3.52091,190.88899 0,198.07002 0.1738,188.64751 -3.52091,190.88913 -1.03261,0.62659 -36.11715,0.88944 -118.72527,0.88944 h -117.2595 z m 229.92642,-189.79211 1.82719,-181.80669 -112.18226,-0.4568 -110.81187,0.4568 -1.41076,181.80669 0.49717,181.35004 h 118.12062 l 105.2242,0.78771 z M 180.45696,746.25814 c -7.65937,-2.19504 -15.97643,-9.50712 -18.45109,-16.22154 -3.34275,-9.07001 0.72025,-20.83148 7.90217,-22.87505 1.3839,-0.39365 2.29463,-0.0784 3.4043,1.17996 2.17805,2.46927 1.89295,3.98514 -1.38912,7.38642 -2.56197,2.65497 -4.4022,4.94214 -4.3998,8.19383 0.003,4.76053 3.48317,6.91464 7.71032,9.95388 8.78927,6.3191 20.77181,4.83213 25.52731,-3.16799 3.02343,-5.08627 1.70532,-11.59017 -3.90563,-19.27147 -1.83564,-2.51284 -2.2284,-6.21002 -0.82834,-7.79716 2.76972,-3.14007 5.70208,0.68508 9.56949,9.74825 2.64101,6.18895 5.54912,13.82769 3.28929,19.27792 -1.86551,4.49932 -6.92531,9.90993 -11.33566,12.12171 -3.78942,1.9003 -12.86886,2.6818 -17.09324,1.47124 z m 64.55287,-42.27805 c -6.69746,-2.11674 -12.62509,-9.43091 -12.62509,-15.89956 0,-8.36537 8.96732,-12.63039 23.3938,-15.94658 19.76558,-4.54348 43.25177,-4.34446 50.29473,-1.97334 10.2138,3.4387 12.63877,14.42082 4.95683,22.44846 -5.08656,5.31543 -11.61001,6.50041 -18.8587,3.42582 -4.50573,-1.91123 -9.07981,-5.7207 -10.48761,-8.73458 -0.81428,-1.74315 -0.78461,-2.34888 0.19823,-4.04946 1.20676,-2.08807 4.6965,-4.89802 5.59135,-3.25662 0.84002,1.54098 6.62872,7.84146 9.35418,8.6734 4.77234,1.45688 11.86962,-2.11274 11.86962,-6.36745 0,-4.43924 -10.18306,-5.94175 -27.90861,-4.40516 -6.16859,0.53475 -12.26794,1.17739 -13.55411,1.42818 -2.31346,0.45104 -2.32705,0.481 -1.27053,2.7972 1.5055,3.30056 1.32614,8.40291 -0.4456,12.67601 -3.23131,7.79344 -12.19995,11.80956 -20.50849,9.18368 z m 10.49894,-9.20285 c 2.72674,-1.59847 4.64153,-6.24759 3.5369,-8.58758 -1.20351,-2.54939 -3.52233,-3.49812 -8.54977,-3.49812 -4.39457,0 -4.8321,0.17697 -7.27143,2.9424 -2.34819,2.66217 -2.51505,3.14276 -1.75122,5.04331 1.92188,4.78199 9.23057,6.91697 14.03552,4.09999 z m -106.28204,3.15241 c -1.65542,-2.0738 -1.5957,-3.95413 0.18986,-5.97842 1.39422,-1.58069 3.027,1.05052 26.55459,1.03881 25.95808,-0.0128 27.3035,-2.97279 27.75598,-6.52929 0.12213,-0.96004 0.87956,-2.42 1.68316,-3.2445 1.32579,-1.36025 1.63928,-1.38561 3.38517,-0.27469 4.88213,3.10663 3.43576,11.06841 -2.5776,14.18879 -3.2857,1.70495 -4.60298,1.79766 -29.5839,2.08241 -25.04517,0.2855 -26.19819,0.23149 -27.40726,-1.28311 z m 39.83874,-15.81272 c -6.21135,-2.82885 -9.15603,-7.18116 -9.15603,-13.53267 0,-3.12808 1.94404,-4.27848 4.4037,-7.50034 2.35636,-3.08642 1.26944,-4.0965 0.67962,-5.34592 -1.17081,-2.48018 -0.87593,-6.43959 0.54332,-7.29549 0.69881,-0.42143 3.80254,-1.03347 6.89721,-1.36025 3.40256,-0.35922 5.62477,-0.9625 5.62186,-1.5262 -0.002,-0.51272 -0.65389,-2.04343 -1.44724,-3.40151 -1.62562,-2.78266 -1.88325,-6.17801 -0.58083,-7.65466 1.28284,-1.4543 3.04295,-0.90151 4.36541,0.75507 1.77697,2.22607 6.36468,9.94025 6.37261,12.34442 0.0103,2.93004 -4.58375,6.66282 -5.55111,6.78128 l -5.81643,0.71226 6.55333,5.07096 c 7.89432,6.10862 6.11549,16.15942 0.75237,20.79699 -3.41292,2.95129 -8.71006,3.40025 -13.63779,1.15606 z m 8.96555,-8.64559 c 1.20093,-1.64051 0.36293,-4.14269 -2.65631,-7.93145 l -2.53646,-3.18289 -2.47129,2.13707 c -3.62711,3.13634 -3.34285,6.27447 0.79579,8.78513 2.74031,1.66237 5.7307,1.74608 6.86827,0.19214 z m 40.29736,-6.69081 c -1.51106,-1.77361 0.27164,-5.04855 2.43258,-7.07282 l 2.0439,-1.91444 -1.41902,-2.73162 c -0.91671,-1.7646 -1.43959,-4.34689 -1.47718,-7.29508 -0.0489,-3.83134 0.21327,-4.81273 1.6336,-6.11655 2.01205,-1.84705 2.30958,-1.88127 4.02166,-0.46194 0.79503,0.65898 1.55555,2.80761 1.92068,5.42618 0.33247,2.38423 1.00592,4.88344 1.49655,5.55375 1.7911,2.44662 6.74261,4.55718 12.03639,5.13051 5.38904,0.58349 6.70502,1.41995 6.72923,4.27681 0.0297,3.50287 -3.30799,4.43489 -19.22842,5.36946 -6.02695,0.3538 -9.5051,0.63965 -10.18997,-0.16426 z m 3.49024,-30.97246 c -2.20218,-1.20492 -2.73248,-3.61335 -1.32997,-6.04002 1.0374,-1.79496 1.68079,-2.01746 5.83421,-2.01746 4.39831,0 8.36666,-1.18575 8.36666,-2.49999 0,-1.13996 -7.13667,-4.0538 -11.28175,-4.60604 -2.57244,-0.34275 -4.7083,-1.14474 -5.52998,-2.07625 -1.68061,-1.9053 -1.67404,-2.51349 0.0533,-4.92472 1.2189,-1.70147 1.96345,-1.92769 5.98966,-1.8194 8.22218,0.22108 18.00613,6.0835 19.20717,11.50864 1.5673,7.07942 -5.97793,13.54922 -15.64629,13.416 -2.2249,-0.0309 -4.77319,-0.45398 -5.66285,-0.94076 z m -37.02702,-4.17202 c -2.26531,-1.16015 -4.13059,-3.22081 -2.8394,-7.53236 1.14821,-3.83403 2.41187,-6.23011 0.88796,-6.23011 -1.22977,0 -2.6057,1.42214 -6.15011,6.35613 -3.68725,5.13297 -6.88986,6.57052 -10.65959,4.78483 -3.24932,-1.53916 -4.937,-5.40599 -4.45879,-10.21602 0.3738,-3.75943 2.6825,-6.98621 4.88906,-6.98621 1.98713,0 3.77118,3.58291 3.27173,5.92689 -0.39147,1.83727 0.0911,1.47511 2.98098,-2.23724 1.89643,-2.43619 4.51813,-4.93631 5.82601,-5.55583 9.95662,-4.71626 17.4513,6.61002 12.10385,18.29189 -1.5955,3.48549 -3.51018,4.5973 -5.8517,3.39803 z m 30.68013,-23.83957 c -1.77083,-1.12352 -3.98009,-7.05615 -3.99891,-10.73841 -0.0509,-9.93733 9.63241,-16.57458 17.71188,-12.14048 3.79298,2.08161 5.92993,5.07585 7.21276,10.10656 l 0.8943,3.50699 15.28798,0.41153 c 13.40387,0.36081 22.58162,0.9463 22.58162,4.64424 0,4.2246 -4.63229,2.74193 -32.07533,3.16672 -15.67704,0.24268 -26.84673,1.53015 -27.6143,1.04285 z m 13.14923,-9.27166 c 0.60076,-1.77475 -1.61681,-5.22668 -3.7472,-5.83282 -2.4106,-0.68598 -5.43067,1.58007 -5.43067,4.07478 0,2.69843 0.48742,2.99898 4.86292,2.99898 2.80125,0 4.01283,-0.3484 4.31495,-1.24094 z m -61.80958,5.70769 c -4.47067,-2.64272 -6.87968,-5.44803 -9.13168,-10.6341 -1.91648,-4.41339 -2.25171,-5.99462 -1.9386,-9.1438 0.62782,-6.31472 4.66181,-10.94909 10.07507,-11.57461 6.57279,-0.75955 8.53178,4.55237 9.68762,18.06536 0.52281,6.11229 2.00795,5.93729 4.66717,2.7283 2.56232,-3.09223 3.80799,-7.03969 1.56582,-11.82053 -2.16192,-4.60952 -3.44039,-7.75343 -1.80992,-9.60178 3.67323,-4.16442 9.50963,3.04106 10.28166,12.69337 0.67045,8.38247 -2.62751,15.1095 -9.29946,18.96834 -3.48524,2.01566 -10.94229,2.18479 -14.09768,0.31945 z m 1.99272,-15.00421 c -0.55595,-6.08941 -1.66054,-7.82323 -3.35186,-7.08734 -2.48258,1.08005 -2.05142,6.86015 0.77593,10.40201 1.7822,2.23258 3.11033,2.53874 2.57593,-3.31467 z m 52.09622,-11.35078 c -5.22103,-2.56672 -8.85556,-7.0906 -8.85556,-13.04947 0,-3.11538 1.2866,-4.27257 3.38564,-6.90657 2.34586,-2.94369 2.46215,-3.34223 1.6696,-5.72263 -0.73097,-2.19557 -0.65926,-2.79988 0.50508,-4.25854 0.74633,-0.93498 2.56362,-1.91869 4.03845,-2.18594 4.28222,-0.77639 4.73884,-1.3618 3.7915,-4.86107 -2.07465,-7.66369 4.28473,-10.72312 7.28466,-3.50454 2.62387,6.3137 3.60423,10.43255 -0.86808,13.71792 l -3.50881,2.57759 3.59162,2.25795 c 12.93902,8.13439 1.51894,28.10688 -11.0341,21.9353 z m 6.83263,-7.4192 c 1.65168,-0.71852 1.45456,-5.40276 -0.37536,-8.91888 -1.77266,-3.40615 -2.49195,-3.57732 -4.78212,-1.13816 -4.03088,4.29315 0.0618,12.27383 5.15748,10.05704 z m -63.86147,-5.14929 c -4.8881,-3.37938 -6.63593,-10.19607 -3.82225,-14.90708 2.37626,-3.97856 5.01179,-5.53792 7.61551,-4.50572 2.8724,1.13855 3.17543,4.72216 0.65185,7.70844 -1.45214,1.7183 -2.52627,3.28328 -1.85089,4.04887 1.5354,1.74069 4.22065,0.2112 6.29965,-2.86659 4.54888,-6.73424 6.98758,-9.34264 9.45756,-10.11583 5.16738,-1.61763 10.35743,3.05853 10.35743,9.33158 0,6.61631 -5.07601,13.19507 -9.77789,12.67279 -1.88289,-0.20913 -2.23359,-0.61989 -2.4236,-2.83848 -0.16631,-1.94158 0.33572,-3.31419 1.99656,-5.45871 2.16315,-2.79297 2.8233,-4.70523 1.62441,-4.70523 -0.32684,0 -2.39943,1.27855 -4.21579,4.14095 -4.86185,7.66185 -10.63894,11.1409 -15.91255,7.49501 z m 26.5215,-35.52504 c -1.08185,-2.29165 -0.87401,-3.67906 0.81031,-5.40857 1.41028,-1.44798 19.49481,-1.16095 39.689,-2.12353 l 5.7563,-0.26751 0.0791,-3.49439 c 0.20764,-9.17575 5.12555,-6.90913 7.97954,-1.1523 2.00575,4.04595 2.08429,8.62307 0.1849,10.77646 -2.61542,2.96503 -6.35189,3.36666 -30.48198,3.27575 -21.85865,-0.0824 -23.34476,-0.18161 -24.01714,-1.60591 z m 32.47518,-15.93425 c -7.32029,-3.07924 -11.52255,-8.71415 -11.99256,-16.08087 -0.51713,-8.10506 3.30258,-13.22515 9.87103,-13.2317 5.58428,0 8.42358,5.6147 8.04611,15.92678 -0.16874,4.60927 -1.2001,4.36152 0.20691,4.59506 0.84936,0.14096 2.64987,-1.51539 3.47306,-2.44855 2.10805,-2.38991 2.68941,-6.11776 0.36932,-12.0653 -2.00044,-5.12807 -2.08602,-6.52479 -0.26144,-7.81897 1.96937,-1.39704 4.56189,-1.709 6.61703,1.88569 3.61406,6.32193 3.82627,18.90287 0.40466,23.98863 -3.54067,5.26261 -11.08005,7.62768 -16.73412,5.24923 z m -2.34209,-20.15012 c -0.41035,-1.19914 -0.57393,-1.17175 -1.49784,0.25155 -1.37058,2.11122 -2.74868,4.49474 -1.20689,6.96424 l 2.71078,1.31496 0.22732,-3.59225 c 0.12501,-1.97565 0.02,-4.19798 -0.23337,-4.9385 z m -6.83953,-17.19191 c -3.89836,-2.25356 -5.49675,-5.34193 -5.49675,-10.62086 0,-4.08094 0.23699,-4.77413 2.37102,-6.93588 2.96325,-3.00156 5.53553,-3.10972 7.15891,-0.30082 1.15454,1.99754 1.13752,2.21835 -0.34627,4.49365 -1.93539,2.96773 -1.97697,2.88972 -0.14439,4.00165 1.5586,0.94565 2.44095,1.6576 7.83714,-7.30389 3.54023,-5.87873 7.97116,-8.61523 11.93891,-7.37328 3.22421,1.00931 6.08219,4.63884 7.13157,9.05687 1.88449,7.93428 -6.40095,17.84697 -10.46666,13.2377 -1.42809,-1.61903 -1.16694,-4.83484 2.08528,-6.32727 2.2985,-1.05477 1.39674,-5.65535 -0.0133,-6.98206 -1.40887,-1.32554 -1.93143,-0.77523 -6.6496,7.00304 -5.49249,9.0547 -9.78738,11.29926 -15.40596,8.05115 z"
         id="path2"
         sodipodi:nodetypes="ccccccscssscccccccccccssscsccsscssssssssssssssssssssssssssssssssssssssssscssscscssssscssssscsssssccsssssssssssscsssssssssssssscssscssscssssscsssssscsscsssscsssscssscscsssssscscssssssssscsscssssscscsscsccscscscsscscssscssscssccs" />
      <path
         style="fill:#000000;stroke-width:1.16928"
         d="m 621.1065,928.83408 c -9.44148,-2.22617 -16.22835,-4.85052 -25.4042,-9.82337 -15.09809,-8.18249 -21.88458,-15.47779 -25.91571,-27.85908 -0.70404,-2.16235 -1.36875,-4.06284 -1.47716,-4.22329 -0.10838,-0.16035 -2.04948,1.53124 -4.31352,3.75909 -8.72139,8.58205 -26.2063,15.79723 -38.28238,15.79723 -14.05697,0 -30.02882,-8.14001 -39.1824,-19.96925 -6.20317,-8.01635 -9.19595,-18.29582 -10.09658,-34.67937 -0.61179,-11.12951 0.9228,-16.6611 7.94883,-28.65236 1.75773,-2.99988 4.07461,-6.13962 5.14863,-6.97729 2.54366,-1.98371 11.78475,-7.09609 15.45682,-8.5509 8.49038,-3.36408 23.98175,-4.35789 33.62985,-2.15768 10.12219,2.30833 17.50158,6.52576 26.40573,15.0913 l 5.16775,4.97121 7.65198,-8.51701 c 8.16996,-9.09345 11.90928,-11.73325 25.11325,-17.72876 8.40081,-3.81458 9.80272,-4.15493 26.43788,-6.41802 18.91716,-2.57368 28.58024,-2.61177 37.79898,-0.14902 10.5497,2.81818 13.96026,6.58057 16.85467,18.59346 2.75901,11.45067 3.29535,19.51996 3.24034,48.75135 -0.0594,31.49299 -0.54752,36.36077 -4.87325,48.58249 -1.40383,3.96643 -2.5524,7.56078 -2.5524,7.9875 0,1.45052 -4.48401,6.42159 -7.14381,7.9197 -8.70919,4.90547 -16.27124,6.30124 -33.45201,6.17521 -7.93961,-0.059 -12.13813,-0.50305 -18.16129,-1.92314 z"
         id="use6" />
      <path
         style="fill:#b3111a;fill-opacity:1;stroke:#b3111a;stroke-width:0.24197;stroke-opacity:1"
         d="m 210.73789,730.21306 c -1.16977,4.59472 -6.66969,10.94817 -11.66147,13.47121 -2.71947,1.37453 -6.606,2.05836 -11.69219,2.05722 -4.39723,-9.8e-4 -5.62624,-0.26974 -9.31584,-2.03718 -5.65393,-2.70844 -11.31015,-7.96831 -13.78639,-12.82035 -1.54623,-3.02974 -2.25546,-7.34165 -1.81973,-11.06338 0.31275,-2.67134 1.3609,-6.08229 2.45856,-8.0008 2.39906,-4.19312 6.92588,-6.74788 9.02749,-5.09475 1.22715,0.96528 2.06333,2.36724 2.06333,3.45945 0,1.2659 -0.73796,2.43761 -3.33525,5.29564 -2.67391,2.94234 -3.50437,4.55619 -3.63085,7.05588 -0.18706,3.69704 1.32998,5.97349 6.36117,9.54553 4.92403,3.49595 8.1301,4.65831 12.94539,4.69334 3.55643,0.0259 5.1917,-0.33245 8.16306,-1.78869 4.71654,-2.31153 7.67677,-7.22353 7.23895,-12.01177 -0.31455,-3.44 -1.71662,-6.95657 -4.36604,-10.95057 -1.9538,-2.94536 -2.20635,-3.45608 -2.5618,-5.18057 -0.35992,-1.74619 -0.0282,-3.3518 0.89223,-4.31851 2.29031,-2.40547 4.95393,0.24335 8.6666,8.61844 1.95886,4.41884 3.10002,7.50313 3.86399,10.44352 0.7786,2.99665 0.98676,6.67036 0.48879,8.62634 z"
         id="path20" />
      <path
         style="fill:#b3111a;fill-opacity:1;stroke:#b3111a;stroke-width:0.24197;stroke-opacity:1"
         d="m 212.68198,690.16382 c -1.01617,3.25153 -4.07398,6.01169 -7.75495,7.00011 -0.66541,0.17868 -3.00647,0.43836 -5.20235,0.57708 -4.81927,0.30443 -36.25785,0.6498 -42.71602,0.46926 -4.03865,-0.11291 -4.70904,-0.18892 -5.44432,-0.6173 -1.0454,-0.60905 -1.99339,-2.27236 -1.99339,-3.4975 0,-1.09727 0.71245,-2.5717 1.5419,-3.19097 0.579,-0.43229 0.7082,-0.43112 4.58082,0.0414 8.21848,1.0028 19.91906,1.4008 29.53531,1.00466 9.83655,-0.40522 14.32071,-1.05758 17.15006,-2.495 1.72669,-0.87723 2.49107,-1.88434 2.77424,-3.65519 0.32275,-2.01833 2.17151,-4.52023 3.34019,-4.52023 0.69477,0 2.62677,1.27872 3.29253,2.1792 1.2155,1.64405 1.5935,4.47258 0.89598,6.70447 z"
         id="path21" />
      <path
         style="fill:#b3111a;fill-opacity:1;stroke:#b3111a;stroke-width:0.24197;stroke-opacity:1"
         d="m 208.29188,672.90773 c -0.79556,3.28792 -3.31299,6.81705 -5.84638,8.1959 -2.50063,1.36101 -5.88291,1.74131 -9.01203,1.0133 -0.86504,-0.20126 -2.60722,-0.87661 -3.87152,-1.50077 -2.91882,-1.44099 -5.56362,-3.93721 -6.74998,-6.37081 -0.9106,-1.8679 -1.56141,-5.12449 -1.38887,-6.94972 0.16484,-1.74369 0.80561,-2.93257 2.96116,-5.49404 2.9815,-3.54298 3.2711,-4.51307 2.10413,-7.04838 -0.85884,-1.86586 -0.94675,-5.06223 -0.17554,-6.38271 0.61626,-1.0552 1.40024,-1.29575 6.75767,-2.07349 2.26241,-0.32844 4.33125,-0.65648 4.59742,-0.729 1.22881,-0.33475 1.81477,-0.67497 1.81477,-1.05369 0,-0.22641 -0.49627,-1.43131 -1.10283,-2.67756 -1.27348,-2.6165 -1.89084,-4.94364 -1.6559,-6.24194 0.50793,-2.80693 2.59276,-3.64143 4.51193,-1.806 2.14834,2.05458 6.95772,11.00969 6.95772,12.95533 0,0.95573 -1.16368,2.96432 -2.489,4.29616 -2.08325,2.0935 -2.58672,2.32536 -5.79847,2.67037 -1.56373,0.16798 -2.84314,0.38099 -2.84314,0.47336 0,0.0924 1.61425,1.42582 3.58722,2.96322 1.97297,1.5374 4.11276,3.37689 4.7551,4.08776 2.77657,3.07277 3.88392,7.55071 2.88654,11.67271 z m -9.01442,-4.57296 c -0.62775,-1.32309 -2.53454,-4.02991 -4.3405,-6.16164 l -0.7102,-0.83831 -1.86356,1.66789 c -1.02497,0.91733 -2.12899,2.12078 -2.45339,2.67433 -1.46089,2.49283 -0.17138,5.24592 3.28169,7.0064 2.69537,1.37417 5.56585,1.22892 6.40982,-0.32437 0.54972,-1.01174 0.43621,-2.4223 -0.32386,-4.0243 z"
         id="path22" />
      <path
         style="fill:#b3111a;fill-opacity:1;stroke:#b3111a;stroke-width:0.24197;stroke-opacity:1"
         d="m 213.40031,623.08642 c -0.67611,3.06611 -2.03424,5.9136 -3.38705,7.10138 -1.19597,1.05008 -2.04737,1.15839 -3.57172,0.45439 -3.5264,-1.62863 -4.11146,-3.98023 -2.3614,-9.49153 1.06095,-3.34113 1.14801,-3.93856 0.60438,-4.14717 -1.13659,-0.43615 -2.5521,0.84509 -5.97436,5.40767 -3.68904,4.91827 -5.49053,6.25061 -8.4223,6.22894 -2.83008,-0.0209 -5.43328,-1.97246 -6.55374,-4.91316 -0.63916,-1.67752 -0.88364,-5.19853 -0.48879,-7.03965 0.58321,-2.71939 2.26157,-5.117 3.93241,-5.61759 1.25764,-0.3768 2.28309,0.25493 3.22211,1.98498 0.61284,1.12908 0.71511,1.57551 0.70444,3.07511 -0.007,0.96486 0.0775,1.75428 0.18738,1.75428 0.10992,0 0.87628,-0.84387 1.70302,-1.87526 0.82673,-1.0314 2.59753,-2.97473 3.9351,-4.31851 3.02234,-3.03638 4.15695,-3.57935 7.51331,-3.59551 1.91091,-0.009 2.34787,0.0731 3.56649,0.67147 0.76383,0.37508 1.87999,1.17318 2.48038,1.77357 1.22838,1.22838 2.6009,3.89883 3.00353,5.84384 0.35031,1.69229 0.30581,4.89335 -0.0932,6.70275 z"
         id="path23" />
      <path
         style="fill:#b3111a;fill-opacity:1;stroke:#b3111a;stroke-width:0.24197;stroke-opacity:1"
         d="m 211.22848,590.54149 c -0.43863,2.05634 -0.89418,3.28981 -1.9738,5.34433 -1.71921,3.27166 -5.89118,6.95313 -8.89519,7.84937 -3.60647,1.07599 -8.59642,1.00467 -11.30751,-0.1616 -1.89378,-0.81469 -4.84083,-3.10789 -6.39202,-4.97386 -1.49839,-1.80246 -3.79269,-6.23549 -4.81874,-9.31076 -0.73687,-2.20853 -0.83608,-5.42125 -0.24488,-7.92954 1.0679,-4.53071 4.25266,-8.05353 8.20543,-9.07642 2.87299,-0.74346 4.92057,-0.3909 6.57236,1.13167 2.27885,2.10057 3.41816,5.98069 4.32428,14.7271 0.56742,5.47714 0.99103,6.75516 2.239,6.75516 0.95374,0 3.2018,-2.45706 4.32219,-4.72402 0.71127,-1.43915 0.91626,-2.16811 1.00691,-3.58063 0.14684,-2.28813 -0.17066,-3.70141 -1.49207,-6.64156 -2.0327,-4.52278 -2.47428,-6.58022 -1.72376,-8.03157 0.94035,-1.81843 2.84074,-2.22309 4.75098,-1.01165 2.01846,1.28006 3.99401,4.69795 5.05486,8.74534 0.68751,2.62304 0.88733,8.47249 0.37196,10.88864 z m -21.31158,-4.98918 c -0.20403,-1.18191 -0.61235,-2.63892 -0.90738,-3.2378 -0.4715,-0.95707 -0.64236,-1.09772 -1.41163,-1.16204 -3.21535,-0.26885 -3.03513,6.91823 0.2678,10.68007 1.08267,1.23309 1.5653,1.46701 2.04241,0.9899 0.50888,-0.50887 0.51352,-4.34637 0.009,-7.27013 z"
         id="path24" />
      <path
         style="fill:#b3111a;fill-opacity:1;stroke:#b3111a;stroke-width:0.24197;stroke-opacity:1"
         d="m 213.64282,555.81882 c -0.69399,3.15248 -2.11052,5.72835 -4.25136,7.73086 -1.71267,1.60201 -3.05282,2.14585 -4.98471,2.02283 -2.06636,-0.13157 -2.34967,-0.44109 -2.4633,-2.69117 -0.10945,-2.16749 0.15877,-2.87234 2.27382,-5.97529 0.94035,-1.37956 1.62682,-2.66291 1.71497,-3.2061 0.13536,-0.83416 0.10145,-0.90563 -0.42911,-0.90419 -0.93095,0.003 -2.62229,1.67645 -4.79871,4.74928 -3.48348,4.91826 -6.48186,7.39984 -9.74432,8.06481 -4.62567,0.94283 -9.64973,-3.51555 -10.62648,-9.42998 -0.53859,-3.2613 0.50753,-6.39607 3.05141,-9.14377 1.56715,-1.69271 2.55551,-2.2269 4.12018,-2.2269 2.80177,0 4.32001,1.94365 3.73531,4.78194 -0.19142,0.92921 -0.64233,1.78589 -1.66836,3.1697 -2.16884,2.92512 -2.30306,3.30581 -1.46202,4.14685 0.3154,0.3154 0.80656,0.48394 1.41033,0.48394 1.38309,0 2.87789,-1.12219 4.54355,-3.41098 3.73442,-5.1315 4.61106,-6.25365 5.99117,-7.66913 1.97785,-2.02854 3.52868,-2.78334 5.71874,-2.78334 2.11613,0 3.82896,0.78895 5.43089,2.50154 2.39325,2.55858 3.26191,6.04646 2.438,9.7891 z"
         id="path25" />
      <path
         style="fill:#b3111a;fill-opacity:1;stroke:#b3111a;stroke-width:0.24197;stroke-opacity:1"
         d="m 316.25753,685.304 c -1.10283,3.40425 -3.61218,6.63765 -6.81245,8.77812 -2.12907,1.42401 -3.7056,2.04418 -6.22934,2.45047 -2.27763,0.36666 -5.09832,0.0506 -7.91299,-0.8866 -6.19363,-2.06235 -12.64842,-7.79099 -12.64842,-11.22551 0,-1.56686 1.60015,-3.79028 3.68242,-5.11672 1.52669,-0.97254 2.00683,-0.8992 3.03824,0.46408 1.16997,1.54642 5.02228,5.42594 6.59104,6.6376 1.59055,1.22849 2.69295,1.62576 4.54872,1.63925 4.84366,0.0352 9.54815,-3.22233 9.54815,-6.61142 0,-1.10288 -0.0874,-1.28771 -1.04128,-2.20167 -2.10153,-2.01362 -6.48086,-2.82648 -15.17069,-2.81585 -7.88992,0.01 -24.3145,1.39366 -26.58303,2.24001 -0.68723,0.25639 -0.64451,0.67205 0.34435,3.3503 0.59391,1.60854 0.66815,2.13101 0.65328,4.59743 -0.0479,7.95186 -4.33175,13.9907 -11.63762,16.40537 -1.59627,0.52759 -2.29399,0.61399 -5.00071,0.6193 -2.7723,0.005 -3.37533,-0.0704 -5.08136,-0.63904 -6.00241,-2.00067 -11.03903,-7.47632 -12.36691,-13.44491 -0.9736,-4.37612 0.55993,-8.23371 4.4464,-11.18488 5.17125,-3.92677 16.6124,-7.3726 30.78665,-9.2723 8.02001,-1.07487 10.75954,-1.23633 20.93039,-1.23357 12.43803,0.003 15.5483,0.39882 19.59955,2.4919 2.03528,1.05153 4.63288,3.52909 5.50434,5.24999 1.53282,3.02689 1.82872,6.56798 0.81127,9.70865 z m -55.93015,-0.3943 c -0.47796,-0.93566 -1.56474,-1.85679 -2.8929,-2.45198 -1.03567,-0.46412 -1.74231,-0.55734 -4.90834,-0.64755 -4.55423,-0.12975 -5.12909,0.0444 -7.23479,2.19147 -1.95406,1.99248 -2.73801,3.19974 -2.73801,4.21646 0,1.81876 2.05555,4.46979 4.39189,5.6642 3.55784,1.81887 8.36284,1.50154 10.88538,-0.71889 2.44898,-2.15568 3.62534,-6.04442 2.49677,-8.25371 z"
         id="path26" />
      <path
         style="fill:#b3111a;fill-opacity:1;stroke:#b3111a;stroke-width:0.24197;stroke-opacity:1"
         d="m 268.82458,662.06763 c -0.95024,2.18281 -4.72141,2.96559 -18.52821,3.8459 -6.58499,0.41986 -9.16635,0.45535 -10.00228,0.13754 -0.82663,-0.31429 -1.23677,-1.61732 -0.90126,-2.86333 0.38088,-1.41448 1.93454,-3.6581 3.49832,-5.05187 l 1.3896,-1.23853 -0.98884,-1.96671 c -1.41756,-2.81938 -1.78928,-4.58901 -1.80968,-8.61511 -0.0192,-3.79496 0.0927,-4.16862 1.71658,-5.73237 1.13604,-1.09396 1.98597,-1.45126 2.63385,-1.10723 1.6401,0.87089 2.43402,2.55199 3.12295,6.61278 0.84542,4.98319 1.66134,6.20646 5.31962,7.97543 2.51815,1.21766 4.94395,1.88834 8.72455,2.41214 4.22865,0.58588 5.48257,1.16524 5.91842,2.73457 0.3284,1.18246 0.30342,1.94474 -0.0936,2.85679 z"
         id="path27" />
      <path
         style="fill:#b3111a;fill-opacity:1;stroke:#b3111a;stroke-width:0.24197;stroke-opacity:1"
         d="m 264.55024,625.85811 c -1.23512,6.3008 -9.6003,10.8097 -18.00914,9.70707 -1.19515,-0.15672 -2.63165,-0.50467 -3.19224,-0.77322 -2.05602,-0.98495 -2.68901,-3.36601 -1.50598,-5.66488 1.00553,-1.95392 1.32361,-2.08191 5.7189,-2.30101 5.17431,-0.25793 8.06046,-1.03127 8.45193,-2.26467 0.18293,-0.57636 -0.42405,-1.11816 -2.32903,-2.07893 -2.19042,-1.10474 -5.45733,-2.15568 -8.69021,-2.79558 -3.6134,-0.71522 -5.27746,-1.4515 -6.16054,-2.72578 -0.81897,-1.18177 -0.80397,-2.10877 0.0558,-3.44561 1.37996,-2.14577 2.35889,-2.64855 5.15685,-2.64855 5.39374,0 11.38589,2.06897 15.84625,5.47139 2.7776,2.1188 4.20805,4.1396 4.67567,6.60533 0.27481,1.44907 0.275,1.4186 -0.0182,2.91444 z"
         id="path28" />
      <path
         style="fill:#b3111a;fill-opacity:1;stroke:#b3111a;stroke-width:0.24197;stroke-opacity:1"
         d="m 296.22959,604.0037 c -0.70882,1.46388 -1.76256,1.54545 -22.94609,1.77611 -14.42358,0.15705 -21.323,0.33386 -27.57547,0.70668 -9.33161,0.55643 -8.92552,0.60228 -10.01342,-1.13047 -1.60999,-2.56433 -2.97963,-7.79964 -2.70461,-10.33809 0.70116,-6.47164 4.76732,-11.20619 10.5048,-12.23153 3.51105,-0.62746 7.30089,0.71623 10.21372,3.62129 1.97781,1.97253 3.26992,4.53351 4.24323,8.4102 l 0.67879,2.70359 2.18462,0.13208 c 1.20154,0.0726 6.54008,0.24809 11.86341,0.38989 16.00075,0.42621 20.94118,1.07847 23.0202,3.03924 0.86421,0.81505 1.0515,1.84569 0.53082,2.92101 z m -46.85358,-9.42588 c -1.21048,-2.25288 -3.15429,-3.35912 -5.01746,-2.8555 -1.20835,0.32663 -2.59211,1.4576 -3.1045,2.53738 -0.56551,1.19174 -0.52186,3.17156 0.0833,3.7767 0.69235,0.69234 1.30256,0.78174 4.72222,0.69181 3.03715,-0.0799 3.07639,-0.0882 3.66637,-0.77471 0.70523,-0.82066 0.62929,-1.55323 -0.34991,-3.37568 z"
         id="path29" />
      <path
         style="fill:#b3111a;fill-opacity:1;stroke:#b3111a;stroke-width:0.24197;stroke-opacity:1"
         d="m 258.75999,567.43337 c -0.58881,2.93345 -2.71003,6.43221 -4.90398,8.08866 -3.91617,2.95673 -8.12175,3.23706 -12.45712,0.83032 -2.23636,-1.24149 -4.17273,-2.95905 -5.45296,-4.83678 -1.55254,-2.27714 -2.14107,-4.05148 -2.28748,-6.89646 -0.10855,-2.10946 -0.0633,-2.45347 0.47727,-3.62955 0.32846,-0.71457 1.2465,-2.11587 2.04009,-3.11399 2.9587,-3.72127 3.13474,-4.21349 2.38764,-6.67621 -0.54819,-1.80706 -0.46741,-2.78948 0.31851,-3.87367 0.86354,-1.19127 2.56309,-2.1094 4.85218,-2.62124 3.62187,-0.80985 3.9094,-1.24865 3.16504,-4.83015 -0.33528,-1.61322 -0.45563,-2.81566 -0.35371,-3.53404 0.62112,-4.37821 4.1422,-5.24783 6.57738,-1.62446 1.70552,2.53769 3.37632,8.07395 3.1346,10.38661 -0.25253,2.41606 -1.14321,3.62496 -4.50926,6.12023 -0.86504,0.64126 -1.66027,1.24122 -1.76717,1.33324 -0.1069,0.092 1.05412,0.99875 2.58005,2.01494 1.52594,1.0162 3.17471,2.3116 3.66394,2.87865 2.27898,2.64153 3.24504,6.44631 2.53498,9.9839 z m -9.23476,-5.20235 c -0.32006,-0.86504 -0.98389,-2.1989 -1.47519,-2.96413 -0.76524,-1.19191 -0.99851,-1.39132 -1.62759,-1.39132 -0.90024,0 -2.70638,1.57308 -3.42624,2.98413 -2.01658,3.95281 1.12639,9.58712 5.02207,9.00293 0.95669,-0.14347 1.78779,-0.76292 2.123,-1.58236 0.33489,-0.81869 -0.0389,-4.4894 -0.61605,-6.04925 z"
         id="path30" />
      <path
         style="fill:#b3111a;fill-opacity:1;stroke:#b3111a;stroke-width:0.24197;stroke-opacity:1"
         d="m 267.45807,524.44822 c -0.33633,1.71055 -1.29854,3.09416 -2.714,3.90256 -3.13938,1.79298 -6.60813,2.00482 -30.78066,1.87976 -21.88893,-0.11324 -21.44141,-0.0783 -22.21948,-1.73259 -1.11856,-2.37817 -0.0877,-4.96774 2.17916,-5.47439 1.61785,-0.36159 7.66095,-0.69526 17.37865,-0.95957 10.45754,-0.28443 26.53583,-0.92731 26.67511,-1.0666 0.0492,-0.0492 0.1865,-1.54427 0.30512,-3.32241 0.11862,-1.77815 0.33175,-3.62787 0.47362,-4.11051 0.32464,-1.1044 1.34888,-2.1471 2.1091,-2.1471 2.41588,0 5.55087,4.24328 6.47288,8.7612 0.41525,2.03473 0.43341,2.67817 0.1205,4.26965 z"
         id="path31" />
      <path
         style="fill:#b3111a;fill-opacity:1;stroke:#b3111a;stroke-width:0.24197;stroke-opacity:1"
         d="m 263.09358,501.36621 c -0.50765,3.4845 -1.56619,5.84491 -3.55733,7.93241 -3.6072,3.78178 -9.45139,5.3771 -14.20026,3.87633 -2.74291,-0.86683 -5.54467,-2.59957 -7.73553,-4.78402 -2.25526,-2.24866 -3.28438,-3.88122 -4.30613,-6.83112 -0.61402,-1.7727 -0.75349,-2.60464 -0.85148,-5.07903 -0.14075,-3.55404 0.15978,-5.34591 1.29585,-7.7263 1.26729,-2.6553 3.34015,-4.25292 6.34636,-4.89133 2.66437,-0.56582 4.80204,-0.0817 6.48377,1.46851 2.00191,1.8453 3.08193,4.86722 3.50782,9.81501 0.24242,2.8164 0.03,7.2375 -0.40188,8.36288 -0.19426,0.50623 0.39419,0.75826 1.26192,0.54048 0.98689,-0.2477 3.59465,-2.89581 4.17098,-4.23553 1.16886,-2.71709 0.93843,-5.08342 -1.0756,-11.04557 -0.7238,-2.14268 -1.3156,-4.21153 -1.3151,-4.59743 0.003,-2.24307 3.38317,-4.00733 5.5405,-2.89173 2.21451,1.14517 4.11457,5.39878 4.85021,10.85802 0.29672,2.20199 0.28917,7.14681 -0.0141,9.22842 z m -21.24238,-9.02671 -0.30712,-0.56717 -0.59847,0.56224 c -0.92858,0.87235 -2.33507,3.91858 -2.35941,5.11009 -0.0341,1.66763 0.4275,2.42474 1.92639,3.15986 0.72906,0.35757 1.37239,0.65012 1.42964,0.65012 0.41764,0 0.33464,-8.12901 -0.091,-8.91514 z"
         id="path32" />
      <path
         style="fill:#b3111a;fill-opacity:1;stroke:#b3111a;stroke-width:0.24197;stroke-opacity:1"
         d="m 265.40724,466.04508 c -1.73895,6.89082 -8.0893,11.30259 -10.52324,7.31079 -1.06026,-1.73887 -0.33136,-4.14911 1.62961,-5.38863 1.70014,-1.07465 2.00973,-1.61029 2.00973,-3.47713 0,-1.86871 -0.81291,-3.83415 -1.80553,-4.36539 -0.92816,-0.49673 -1.62728,0.14637 -3.76442,3.46277 -1.04361,1.61947 -2.69447,4.17477 -3.66858,5.67845 -2.19108,3.38227 -4.56632,5.83556 -6.63678,6.85484 -1.36762,0.67328 -1.70032,0.73969 -3.28832,0.65636 -2.32222,-0.12185 -4.53194,-1.14271 -6.46539,-2.98691 -2.45251,-2.3393 -3.27679,-4.95967 -3.1201,-9.91884 0.10725,-3.3945 0.3163,-3.92751 2.29998,-5.8642 2.27505,-2.22116 4.3374,-2.83529 5.76095,-1.71552 0.91831,0.72234 2.05652,2.57636 2.05652,3.34984 0,0.35026 -0.59888,1.62548 -1.33084,2.83382 -0.73195,1.20834 -1.33083,2.31529 -1.33083,2.45988 0,0.49902 1.98154,1.71775 2.79289,1.71775 1.12282,0 2.90665,-2.01739 5.71372,-6.46184 2.8604,-4.52886 4.92644,-6.76491 7.36347,-7.96935 1.4714,-0.72721 2.02552,-0.8734 3.31048,-0.8734 2.69773,0 4.93069,1.35933 6.82937,4.15743 2.20967,3.25639 3.01586,7.17677 2.16731,10.53928 z"
         id="path33" />
    </g>
  </g>
</svg>
